<svg width="233" height="25" viewBox="0 0 233 25" fill="none" xmlns="http://www.w3.org/2000/svg">
<path d="M6.66811 23.676C-0.024373 23.5191 -0.35002 17.2718 0.164287 15.1099C0.164287 15.1099 2.07572 18.0088 5.22833 19.7744C8.38095 21.5399 6.66811 23.676 6.66811 23.676Z" fill="#FFEFDA"/>
<path d="M0.450088 14.1007C0.388899 13.2928 2.09879 9.88476 2.43873 9.453C2.43873 14.4145 8.7361 17.0709 8.7361 17.0709C8.7361 17.0709 10.0046 16.3761 10.2746 15.0443C10.2746 15.0443 10.7684 15.582 11.0381 15.966C11.3365 16.3908 11.6579 16.9534 11.6579 16.9534C11.3234 17.3222 11.0475 17.6232 10.9705 17.6988C11.7791 18.0148 12.4404 18.3971 12.5876 19.3458C12.6365 19.6611 12.684 20.039 12.5876 20.4979C11.7407 24.5286 7.88918 23.6138 7.93919 23.5704C8.55898 23.0327 9.00453 22.0325 7.53782 20.4014C7.53782 20.4014 6.88321 19.627 4.93728 18.5793C3.57249 17.8444 0.526575 15.1106 0.450088 14.1007Z" fill="#FFEFDA"/>
<path d="M11.2747 10.1884C18.215 17.1926 14.7023 21.1311 10.8277 23.26C14.4535 20.019 10.9325 15.0632 6.18312 11.5375C2.38362 8.71692 5.50221 3.36197 7.68964 1.31079C6.54571 3.79848 8.9755 8.33624 11.2747 10.1884Z" fill="#FFEFDA"/>
<path d="M8.84099 17.1276C3.69563 14.3008 2.95904 12.5797 2.41757 9.46096C1.43025 11.1349 0.892141 12.0838 0.449097 14.1231C1.03095 15.5628 1.90648 16.5187 4.90405 18.6126C8.28098 20.5476 9.07491 21.643 8.01216 23.6201C11.4018 23.9998 13.9563 21.7544 15.0227 18.8544C16.0891 15.9543 13.3739 12.0827 10.3605 9.46096C7.32424 5.06543 6.95667 3.42926 7.70135 1.37988C4.29049 5.18881 3.52727 8.93722 5.07672 10.497C6.62618 12.0568 8.66882 13.5462 10.1533 15.4009C9.8965 16.04 9.63122 16.415 8.84099 17.1276Z" fill="#FFEFDA"/>
<path d="M10.9472 17.7147L11.4653 17.1622L11.8451 18.1292L10.9472 17.7147Z" fill="#FFEFDA"/>
<path d="M4.86916 19.5105C2.72384 18.3078 1.80473 17.193 0.172461 15.1937C-0.371311 19.7353 0.773522 22.994 6.59588 23.6547C7.56259 21.9052 7.29541 20.9889 4.86916 19.5105Z" fill="#FFEFDA"/>
<path d="M22.963 19.88V19.52L22.987 17.624L23.011 14.096C23.035 13.088 23.035 11.984 23.035 10.832C23.035 9.68 23.035 8.888 23.083 7.784V7.688C23.107 7.376 23.131 7.016 23.131 6.68C23.155 6.368 23.251 6.056 23.395 5.744C23.515 5.504 23.659 5.336 23.899 5.168C24.139 5.048 24.403 4.976 24.643 4.976C24.883 4.976 25.099 5 25.291 5.024C25.483 5.048 25.675 5.144 25.843 5.312C25.963 5.408 26.035 5.528 26.107 5.696C26.155 5.888 26.227 6.056 26.251 6.248C26.275 6.464 26.299 6.656 26.299 6.848C26.299 7.064 26.275 7.232 26.275 7.424V7.832L26.131 20.288V20.528C26.131 20.624 26.107 20.768 26.083 20.96C26.035 21.128 25.987 21.296 25.915 21.488C25.819 21.656 25.723 21.8 25.555 21.92C25.411 22.064 25.195 22.136 24.931 22.184C24.499 22.28 24.067 22.232 23.707 22.064C23.539 21.944 23.395 21.8 23.299 21.584C23.251 21.536 23.227 21.488 23.227 21.44C23.203 21.392 23.155 21.344 23.131 21.296C23.083 21.128 23.035 20.96 23.035 20.768C23.011 20.624 22.987 20.456 22.963 20.288C22.939 20.144 22.939 20.024 22.963 19.88ZM41.6416 16.352C41.6176 18.248 41.4256 20.336 39.4576 21.584C38.4736 22.208 36.7216 22.448 35.5216 22.4C29.7616 22.208 28.7056 16.664 28.9936 12.584C29.1856 10.136 30.3136 6.656 33.0256 5.6C35.4976 4.592 39.3376 4.976 40.8256 7.232C41.3296 8.048 41.6896 9.368 41.4976 10.448C41.2096 12.344 39.1216 11.792 38.7136 10.448C38.4976 9.704 38.2336 9.056 37.5616 8.648C36.0016 7.688 34.0816 8.48 33.1696 9.92C32.1136 11.504 31.9936 13.808 32.3536 15.656C32.5216 16.4 32.7856 17.144 33.1696 17.864C33.7456 18.872 35.2816 19.496 36.5056 19.184C38.2336 18.752 38.6176 17.624 38.6176 16.28V16.256C38.2096 16.256 37.8496 16.232 37.7056 16.232C37.3456 16.232 36.9856 16.16 36.6736 16.04C36.3856 15.944 36.1696 15.8 36.0256 15.584C35.8576 15.392 35.7856 15.176 35.7856 14.936C35.7856 14.744 35.8096 14.576 35.8336 14.384C35.8816 14.24 36.0016 14.072 36.1456 13.904C36.2416 13.832 36.4096 13.76 36.6016 13.712C36.7936 13.664 36.9856 13.592 37.2256 13.568C37.4176 13.544 37.6576 13.544 37.8736 13.544H40.0576C40.4176 13.52 40.9456 13.64 41.2096 13.856C41.3056 13.976 41.4256 14.096 41.4736 14.264C41.5216 14.408 41.5696 14.6 41.5936 14.792C41.6176 14.984 41.6416 15.2 41.6416 15.368V16.352ZM56.6266 20.24C56.6026 20.768 56.5546 21.464 56.0506 21.848C55.2826 22.472 54.0346 22.064 53.5306 21.392C52.4506 20.072 51.5866 18.584 50.6506 17.168L48.6346 14.12C48.0826 13.256 47.4826 12.104 46.8346 11.168L46.7626 20.336V20.552C46.7626 21.056 46.5946 21.584 46.1866 21.944C46.0426 22.064 45.8266 22.16 45.5626 22.208C43.9786 22.496 43.4986 21.08 43.5946 19.952V19.544L43.6426 17.672L43.6666 14.192C43.6906 13.184 43.6906 12.104 43.6906 10.976C43.6666 9.608 43.7146 7.952 43.7866 6.632C43.8106 6.296 43.8826 5.984 44.0506 5.696C44.1226 5.456 44.3146 5.264 44.5546 5.12C44.9146 4.904 45.5626 4.832 45.9706 4.928C46.1386 4.976 46.2826 5.072 46.4506 5.168C46.5946 5.288 46.7626 5.432 46.8826 5.576C47.0506 5.744 47.1706 5.936 47.2906 6.08C47.3866 6.272 47.4826 6.416 47.6026 6.584L47.8666 6.968L53.4106 15.704V14.12C53.4106 13.112 53.3866 12.032 53.3626 10.88C53.3626 9.536 53.3626 7.904 53.4346 6.56C53.4346 6.248 53.5306 5.936 53.6746 5.624C53.9866 4.808 55.3786 4.544 56.0746 5.144C56.1706 5.24 56.2906 5.384 56.3386 5.528C56.4106 5.72 56.4586 5.888 56.4826 6.08C56.5306 6.296 56.5546 6.464 56.5546 6.68C56.5546 10.664 56.5786 14.936 56.6026 18.92C56.6026 19.376 56.6506 19.784 56.6266 20.24ZM59.3146 19.88V19.52L59.3386 17.624L59.3626 14.096C59.3866 13.088 59.3866 11.984 59.3866 10.832C59.3866 9.68 59.3866 8.888 59.4346 7.784V7.688C59.4586 7.376 59.4826 7.016 59.4826 6.68C59.5066 6.368 59.6026 6.056 59.7466 5.744C59.8666 5.504 60.0106 5.336 60.2506 5.168C60.4906 5.048 60.7546 4.976 60.9946 4.976C61.2346 4.976 61.4506 5 61.6426 5.024C61.8346 5.048 62.0266 5.144 62.1946 5.312C62.3146 5.408 62.3866 5.528 62.4586 5.696C62.5066 5.888 62.5786 6.056 62.6026 6.248C62.6266 6.464 62.6506 6.656 62.6506 6.848C62.6506 7.064 62.6266 7.232 62.6266 7.424V7.832L62.4826 20.288V20.528C62.4826 20.624 62.4586 20.768 62.4346 20.96C62.3866 21.128 62.3386 21.296 62.2666 21.488C62.1706 21.656 62.0746 21.8 61.9066 21.92C61.7626 22.064 61.5466 22.136 61.2826 22.184C60.8506 22.28 60.4186 22.232 60.0586 22.064C59.8906 21.944 59.7466 21.8 59.6506 21.584C59.6026 21.536 59.5786 21.488 59.5786 21.44C59.5546 21.392 59.5066 21.344 59.4826 21.296C59.4346 21.128 59.3866 20.96 59.3866 20.768C59.3626 20.624 59.3386 20.456 59.3146 20.288C59.2906 20.144 59.2906 20.024 59.3146 19.88ZM77.5842 5.816C77.7522 6.008 77.8482 6.224 77.8482 6.464C77.8482 6.656 77.8242 6.872 77.8002 7.04C77.7522 7.208 77.6562 7.376 77.4882 7.544C77.3442 7.64 77.1522 7.712 76.9602 7.76C76.7442 7.832 76.5282 7.856 76.2642 7.904C76.0482 7.928 75.8082 7.928 75.5682 7.928H74.3442C73.7682 7.952 73.2162 7.952 72.6642 7.952C72.7122 9.92 72.6402 12.32 72.6402 17.6V19.424C72.6402 19.568 72.6402 19.664 72.6642 19.784C72.6642 19.904 72.6642 20.024 72.6402 20.168C72.6162 20.312 72.5922 20.48 72.5682 20.672C72.5682 20.816 72.5202 20.96 72.4722 21.128C72.4002 21.2 72.3762 21.248 72.3762 21.272L72.3042 21.416C72.2082 21.608 72.0402 21.752 71.8482 21.872C71.5122 22.04 71.1042 22.088 70.6722 21.992C70.4082 21.968 70.1922 21.896 70.0482 21.776C69.9042 21.632 69.8082 21.512 69.7362 21.344C69.6402 21.152 69.5922 21.008 69.5682 20.84C69.5202 20.696 69.4962 20.504 69.4962 20.384V8.048C69.1122 8.048 66.7602 8.024 66.3282 7.952C66.1362 7.928 65.6322 7.856 65.3922 7.784C65.0322 7.688 64.7922 7.544 64.6002 7.328C64.4322 7.136 64.3362 6.896 64.3362 6.632C64.3362 6.44 64.3362 6.248 64.3842 6.08C64.4322 5.912 64.5522 5.744 64.7682 5.6C64.8882 5.504 65.2002 5.336 65.4642 5.264C65.6562 5.192 65.9202 5.144 66.1842 5.12C66.4482 5.096 66.6882 5.096 66.9762 5.096C68.1042 5.096 69.0642 5.096 70.1682 5.072C72.0162 5.048 73.8642 5.072 75.6882 5.12C76.0962 5.144 76.4802 5.192 76.8642 5.36C77.1522 5.456 77.4162 5.6 77.5842 5.816ZM79.5412 19.88V19.52L79.5652 17.624L79.5892 14.096C79.6132 13.088 79.6132 11.984 79.6132 10.832C79.6132 9.68 79.6132 8.888 79.6612 7.784V7.688C79.6852 7.376 79.7092 7.016 79.7092 6.68C79.7332 6.368 79.8292 6.056 79.9732 5.744C80.0932 5.504 80.2372 5.336 80.4772 5.168C80.7172 5.048 80.9812 4.976 81.2212 4.976C81.4612 4.976 81.6772 5 81.8692 5.024C82.0612 5.048 82.2532 5.144 82.4212 5.312C82.5412 5.408 82.6132 5.528 82.6852 5.696C82.7332 5.888 82.8052 6.056 82.8292 6.248C82.8532 6.464 82.8772 6.656 82.8772 6.848C82.8772 7.064 82.8532 7.232 82.8532 7.424V7.832L82.7092 20.288V20.528C82.7092 20.624 82.6852 20.768 82.6612 20.96C82.6132 21.128 82.5652 21.296 82.4932 21.488C82.3972 21.656 82.3012 21.8 82.1332 21.92C81.9892 22.064 81.7732 22.136 81.5092 22.184C81.0772 22.28 80.6452 22.232 80.2852 22.064C80.1172 21.944 79.9732 21.8 79.8772 21.584C79.8292 21.536 79.8052 21.488 79.8052 21.44C79.7812 21.392 79.7332 21.344 79.7092 21.296C79.6612 21.128 79.6132 20.96 79.6132 20.768C79.5892 20.624 79.5652 20.456 79.5412 20.288C79.5172 20.144 79.5172 20.024 79.5412 19.88ZM89.7717 5.648C94.0677 4.016 96.7557 6.32 97.9797 9.56C98.9157 12.008 99.0117 15.008 98.3397 17.216C98.1477 17.936 97.8837 18.536 97.5477 19.136C96.7557 20.504 95.4117 21.392 93.9237 21.728C91.8597 22.208 89.5077 21.68 87.8757 20.096C85.9077 18.176 85.3797 14.864 85.5717 12.32C85.7397 9.968 87.0837 6.656 89.7717 5.648ZM95.3877 15.92C95.7717 14.432 95.7237 12.368 95.1717 10.712C94.4757 8.648 93.1077 7.448 90.7077 8.576C89.2917 9.248 88.7877 11.192 88.6917 12.728C88.5717 14.384 88.7877 16.52 89.8437 17.792C90.6597 18.752 91.8597 19.112 92.9397 18.872C93.8277 18.68 94.4997 18.08 94.9557 17.12C95.1477 16.76 95.2917 16.352 95.3877 15.92ZM113.767 20.24C113.743 20.768 113.695 21.464 113.191 21.848C112.423 22.472 111.175 22.064 110.671 21.392C109.591 20.072 108.727 18.584 107.791 17.168L105.775 14.12C105.223 13.256 104.623 12.104 103.975 11.168L103.903 20.336V20.552C103.903 21.056 103.735 21.584 103.327 21.944C103.183 22.064 102.967 22.16 102.703 22.208C101.119 22.496 100.639 21.08 100.735 19.952V19.544L100.783 17.672L100.807 14.192C100.831 13.184 100.831 12.104 100.831 10.976C100.807 9.608 100.855 7.952 100.927 6.632C100.951 6.296 101.023 5.984 101.191 5.696C101.263 5.456 101.455 5.264 101.695 5.12C102.055 4.904 102.703 4.832 103.111 4.928C103.279 4.976 103.423 5.072 103.591 5.168C103.735 5.288 103.903 5.432 104.023 5.576C104.191 5.744 104.311 5.936 104.431 6.08C104.527 6.272 104.623 6.416 104.743 6.584L105.007 6.968L110.551 15.704V14.12C110.551 13.112 110.527 12.032 110.503 10.88C110.503 9.536 110.503 7.904 110.575 6.56C110.575 6.248 110.671 5.936 110.815 5.624C111.127 4.808 112.519 4.544 113.215 5.144C113.311 5.24 113.431 5.384 113.479 5.528C113.551 5.72 113.599 5.888 113.623 6.08C113.671 6.296 113.695 6.464 113.695 6.68C113.695 10.664 113.719 14.936 113.743 18.92C113.743 19.376 113.791 19.784 113.767 20.24ZM134.383 6.248C134.407 6.464 134.407 6.656 134.407 6.848V7.832L134.263 20.288V20.528C134.263 20.624 134.239 20.768 134.191 20.96C134.167 21.128 134.095 21.296 134.023 21.488C133.951 21.656 133.855 21.8 133.687 21.92C133.543 22.064 133.327 22.136 133.063 22.184C132.607 22.28 132.199 22.232 131.839 22.064C131.647 21.944 131.503 21.8 131.407 21.584C131.359 21.536 131.335 21.488 131.311 21.44C131.311 21.392 131.287 21.344 131.263 21.296C131.191 21.128 131.167 20.96 131.143 20.768C131.143 20.624 131.119 20.456 131.095 20.288C131.047 20.144 131.047 20.024 131.047 19.88C131.095 19.784 131.095 19.664 131.095 19.52L131.119 17.624L131.143 14.6H129.847L124.975 14.624L124.927 20.288V20.528C124.927 20.624 124.903 20.768 124.855 20.96C124.831 21.128 124.759 21.296 124.687 21.488C124.615 21.656 124.519 21.8 124.351 21.92C124.207 22.064 123.991 22.136 123.727 22.184C123.271 22.28 122.863 22.232 122.503 22.064C122.311 21.944 122.191 21.8 122.047 21.584C122.023 21.536 121.999 21.488 121.999 21.44L121.927 21.296C121.855 21.128 121.831 20.96 121.807 20.768C121.807 20.624 121.759 20.456 121.735 20.288C121.711 20.144 121.711 20.024 121.735 19.88V19.52L121.759 17.624L121.807 14.096C121.831 13.088 121.831 11.984 121.831 10.832C121.807 9.68 121.831 8.888 121.879 7.784V7.688C121.903 7.376 121.903 7.016 121.927 6.68C121.951 6.368 122.023 6.056 122.191 5.744C122.287 5.504 122.455 5.336 122.671 5.168C122.911 5.048 123.175 4.976 123.439 4.976C123.679 4.976 123.871 5 124.063 5.024C124.279 5.048 124.447 5.144 124.615 5.312C124.735 5.408 124.831 5.528 124.879 5.696C124.951 5.888 124.999 6.056 125.023 6.248C125.047 6.464 125.047 6.656 125.047 6.848V7.832L124.999 11.792C125.263 11.792 125.575 11.792 126.031 11.768C127.687 11.768 129.319 11.816 131.119 11.816H131.143C131.143 10.4 131.167 9.128 131.215 7.688C131.215 7.376 131.239 7.016 131.263 6.68C131.287 6.368 131.359 6.056 131.527 5.744C131.599 5.504 131.791 5.336 132.031 5.168C132.247 5.048 132.511 4.976 132.775 4.976C133.015 4.976 133.231 5 133.399 5.024C133.591 5.048 133.807 5.144 133.951 5.312C134.095 5.408 134.167 5.528 134.215 5.696C134.287 5.888 134.311 6.056 134.383 6.248ZM151.144 20.432C151.168 20.624 151.192 20.792 151.192 21.008C151.192 21.2 151.144 21.368 151.024 21.536C150.928 21.68 150.76 21.848 150.544 21.944C150.136 22.184 149.728 22.256 149.272 22.184C149.08 22.136 148.864 22.04 148.672 21.872C148.624 21.824 148.576 21.8 148.552 21.752C148.528 21.728 148.48 21.656 148.432 21.632C148.288 21.488 148.192 21.32 148.096 21.176C148.024 21.032 147.952 20.888 147.856 20.72C147.784 20.6 147.712 20.48 147.688 20.36C147.64 20.24 147.592 20.096 147.568 19.976L147.064 18.8C144.88 18.8 142.648 18.824 140.464 18.8L139.96 19.976C139.912 20.096 139.888 20.24 139.84 20.36C139.792 20.48 139.744 20.6 139.672 20.72C139.576 20.888 139.504 21.032 139.408 21.176C139.336 21.32 139.24 21.488 139.096 21.632C139.048 21.656 139 21.728 138.976 21.752C138.952 21.8 138.904 21.824 138.856 21.872C138.664 22.04 138.448 22.136 138.256 22.184C137.8 22.256 137.392 22.184 136.984 21.944C136.768 21.848 136.6 21.68 136.504 21.536C136.384 21.368 136.336 21.2 136.336 21.008C136.336 20.792 136.36 20.624 136.384 20.432C136.408 20.288 136.456 20.12 136.504 20C136.552 19.856 136.576 19.808 136.576 19.784L141.568 7.496L141.712 7.112C141.784 6.92 141.88 6.776 141.952 6.56C142.024 6.368 142.096 6.2 142.216 6.008C142.312 5.816 142.456 5.648 142.576 5.504C142.696 5.36 142.84 5.264 142.984 5.192C143.44 5.024 144.088 5.024 144.544 5.192C144.688 5.264 144.832 5.36 144.952 5.504C145.072 5.648 145.192 5.816 145.312 6.008C145.432 6.2 145.504 6.368 145.576 6.56C145.648 6.776 145.744 6.92 145.816 7.112L145.96 7.496L150.952 19.784C150.952 19.808 150.976 19.856 151.024 20C151.072 20.12 151.12 20.288 151.144 20.432ZM145.888 15.608L145.456 14.552C145.048 13.64 144.616 12.632 144.136 11.6C144.016 11.312 143.872 11 143.752 10.712C143.656 11 143.512 11.312 143.392 11.6C142.912 12.632 142.48 13.64 142.072 14.552L141.64 15.608H145.888ZM165.861 18.032C166.725 19.856 163.917 21.68 162.021 22.136C159.909 22.592 157.245 22.064 155.373 20.504C153.141 18.656 152.997 15.056 153.213 12.44C153.381 10.088 154.749 7.088 157.341 5.648C159.309 4.52 162.549 4.808 164.133 6.272C165.141 7.16 166.725 9.8 164.589 10.328C163.701 10.568 163.197 9.92 162.741 9.344C161.181 7.496 158.397 8.096 157.437 10.16C156.429 12.32 156.117 15.584 157.461 17.504C158.517 19.016 160.581 19.472 162.213 18.56C162.741 18.296 163.389 17.528 164.133 17.312C164.709 17.12 165.525 17.336 165.861 18.032ZM179.569 20.336C179.689 20.576 179.713 20.792 179.593 21.056C179.521 21.296 179.401 21.488 179.185 21.632C178.993 21.776 178.849 21.896 178.657 21.968C178.465 22.064 178.273 22.088 178.033 22.064C177.841 22.064 177.697 21.992 177.529 21.896C177.361 21.8 177.169 21.68 177.025 21.56C176.833 21.392 176.665 21.272 176.545 21.128C176.401 20.96 176.257 20.792 176.137 20.672L175.849 20.36L171.241 15.536L171.313 20.36V20.576C171.313 20.696 171.265 20.864 171.241 21.008C171.193 21.2 171.145 21.368 171.073 21.56C171.025 21.752 170.881 21.872 170.761 21.992C170.593 22.136 170.377 22.232 170.137 22.256C169.657 22.4 169.273 22.352 168.865 22.16C168.697 22.064 168.553 21.896 168.433 21.68C168.409 21.632 168.385 21.584 168.361 21.56C168.361 21.512 168.337 21.464 168.313 21.392C168.217 21.224 168.169 21.056 168.169 20.912C168.145 20.72 168.121 20.576 168.097 20.384C168.073 20.264 168.073 20.12 168.073 20C168.097 19.856 168.097 19.736 168.097 19.592L168.073 17.696L168.049 14.168C168.049 13.136 168.025 12.032 167.977 10.856C167.953 9.704 167.953 8.912 167.977 7.808V7.712C168.025 7.376 168.025 7.016 168.049 6.704C168.049 6.368 168.121 6.056 168.265 5.744C168.361 5.504 168.529 5.312 168.769 5.168C169.009 5.024 169.249 4.976 169.537 4.928C169.753 4.928 169.969 4.976 170.161 5C170.353 5.024 170.545 5.096 170.737 5.264C170.833 5.36 170.929 5.48 170.977 5.672C171.073 5.816 171.121 6.008 171.145 6.224C171.169 6.416 171.193 6.608 171.193 6.824V7.808L171.217 10.736C171.721 10.28 172.225 9.8 172.705 9.272C173.569 8.384 174.409 7.52 175.273 6.704L175.345 6.632C175.609 6.392 175.873 6.128 176.137 5.912C176.353 5.672 176.665 5.456 177.025 5.336C177.265 5.192 177.529 5.144 177.817 5.168C178.105 5.192 178.345 5.312 178.561 5.456C178.729 5.6 178.897 5.72 178.993 5.864C179.137 5.984 179.209 6.176 179.233 6.368C179.233 6.536 179.209 6.68 179.137 6.848C179.041 6.992 178.945 7.184 178.825 7.328C178.681 7.52 178.561 7.688 178.393 7.832C178.273 8 178.105 8.12 177.985 8.264L177.673 8.576L173.185 13.16C174.169 14.144 175.345 15.344 175.897 15.92C176.761 16.808 177.553 17.696 178.321 18.584L178.393 18.656C178.633 18.92 178.873 19.184 179.065 19.448C179.305 19.712 179.473 20 179.569 20.336ZM194.049 15.08C194.361 15.992 194.361 17.408 194.073 18.272C193.041 21.872 187.329 23.12 184.065 21.32C183.033 20.744 182.313 19.904 181.809 18.872C181.449 18.152 181.593 16.904 182.601 16.664C183.273 16.52 184.257 16.64 184.641 17.456C184.977 18.128 185.697 18.704 186.441 19.064C188.553 19.784 190.977 18.68 190.977 16.832C190.977 15.32 190.065 14.888 188.697 14.552C187.185 14.24 185.505 14.36 184.041 13.712C181.113 12.488 180.969 8.336 183.081 6.32C184.113 5.408 185.553 5.048 187.281 4.976C189.201 4.904 191.313 5.36 192.441 6.32C193.257 6.968 194.361 8.6 193.137 9.344C192.129 9.992 191.289 8.96 190.617 8.48C189.753 7.832 188.313 7.64 187.209 7.76C185.817 7.928 184.689 8.672 184.809 10.112C184.881 11.144 185.985 11.48 186.921 11.6C188.337 11.792 189.825 11.768 191.193 12.296C192.585 12.848 193.641 13.784 194.049 15.08ZM216.403 6.224C216.547 6.944 216.403 7.76 216.211 8.36C215.419 10.856 214.099 14.816 213.427 16.616C212.803 18.272 212.083 21.08 210.235 21.872C207.427 23.024 206.275 18.44 205.483 16.664C204.499 14.504 203.731 11.936 202.915 9.728C202.483 8.456 201.451 5.744 203.323 5.168C203.515 5.12 203.731 5.048 203.923 5.024C204.139 5.024 204.331 5.048 204.547 5.168C204.715 5.24 204.883 5.312 205.003 5.432C205.123 5.6 205.243 5.744 205.363 5.912C205.459 6.128 205.531 6.296 205.603 6.464C205.675 6.68 205.795 6.872 205.843 7.016L205.987 7.424L209.443 17.288L212.851 7.448L213.019 7.04C213.067 6.896 213.139 6.704 213.211 6.488C213.283 6.32 213.355 6.152 213.475 5.96C213.571 5.792 213.691 5.624 213.811 5.456C213.907 5.336 214.075 5.24 214.195 5.168C214.435 5.048 214.651 5.024 214.819 5.024C215.011 5.048 215.227 5.12 215.419 5.168C216.019 5.336 216.307 5.744 216.403 6.224ZM218.919 5.24C219.303 5.048 219.807 5.024 220.335 5.024H229.023C229.455 5.024 230.031 4.928 230.439 5.144C232.167 6.128 229.191 10.64 228.663 11.672C227.655 13.568 227.007 14.816 225.999 16.712C225.351 18.008 224.487 19.52 223.743 20.768C223.287 21.56 222.591 22.424 221.487 21.92C220.647 21.464 220.407 20.48 220.791 19.736C221.391 18.656 221.967 17.528 222.543 16.448C223.407 14.816 224.103 13.352 224.967 11.744C225.495 10.784 226.935 8.864 226.719 7.76C225.591 7.664 224.775 7.712 223.695 7.712H221.367C220.239 7.712 218.583 8.048 218.415 6.464C218.343 5.792 218.559 5.432 218.919 5.24Z" fill="#FFEFDA"/>
</svg>
