<svg width="227" height="23" viewBox="0 0 227 23" fill="none" xmlns="http://www.w3.org/2000/svg">
<path d="M6.66811 22.676C-0.024373 22.5191 -0.35002 16.2718 0.164287 14.1099C0.164287 14.1099 2.07572 17.0089 5.22833 18.7744C8.38095 20.5399 6.66811 22.676 6.66811 22.676Z" fill="#956AEC"/>
<path d="M0.449844 13.1007C0.388655 12.2928 2.09855 8.88477 2.43849 8.45302C2.43849 13.4146 8.73586 16.071 8.73586 16.071C8.73586 16.071 10.0044 15.3761 10.2743 14.0443C10.2743 14.0443 10.7681 14.582 11.0379 14.966C11.3362 15.3908 11.6577 15.9534 11.6577 15.9534C11.3232 16.3222 11.0472 16.6233 10.9703 16.6988C11.7788 17.0148 12.4402 17.3972 12.5873 18.3458C12.6363 18.6611 12.6838 19.0391 12.5873 19.498C11.7404 23.5286 7.88894 22.6138 7.93895 22.5704C8.55873 22.0328 9.00429 21.0325 7.53757 19.4015C7.53757 19.4015 6.88296 18.627 4.93704 17.5793C3.57225 16.8444 0.526331 14.1106 0.449844 13.1007Z" fill="#956AEC"/>
<path d="M11.2749 9.18843C18.2151 16.1926 14.7024 20.1311 10.8278 22.26C14.4536 19.019 10.9326 14.0632 6.18324 10.5375C2.38374 7.71695 5.50233 2.36199 7.68976 0.310818C6.54583 2.79851 8.97562 7.33626 11.2749 9.18843Z" fill="#956AEC"/>
<path d="M31.1455 17.8881V17.5524L31.1679 15.7845L31.1903 12.4949C31.2126 11.555 31.2126 10.5256 31.2126 9.45146C31.2126 8.3773 31.2126 7.63881 31.2574 6.60941V6.51989C31.2798 6.22897 31.3022 5.8933 31.3022 5.58C31.3245 5.28908 31.414 4.99816 31.5483 4.70724C31.6602 4.48346 31.7945 4.32681 32.0183 4.17016C32.242 4.05827 32.4882 3.99113 32.712 3.99113C32.9358 3.99113 33.1372 4.01351 33.3162 4.03589C33.4952 4.05827 33.6743 4.14778 33.8309 4.30443C33.9428 4.39395 34.0099 4.50584 34.0771 4.66249C34.1218 4.84151 34.189 4.99816 34.2113 5.17719C34.2337 5.37859 34.2561 5.55762 34.2561 5.73665C34.2561 5.93805 34.2337 6.0947 34.2337 6.27373V6.65416L34.0995 18.2685V18.4923C34.0995 18.5818 34.0771 18.7161 34.0547 18.8951C34.0099 19.0518 33.9652 19.2084 33.898 19.3875C33.8085 19.5441 33.719 19.6784 33.5624 19.7903C33.4281 19.9245 33.2267 19.9917 32.9805 20.0364C32.5777 20.1259 32.1749 20.0812 31.8392 19.9245C31.6826 19.8126 31.5483 19.6784 31.4588 19.477C31.414 19.4322 31.3917 19.3875 31.3917 19.3427C31.3693 19.2979 31.3245 19.2532 31.3022 19.2084C31.2574 19.0518 31.2126 18.8951 31.2126 18.7161C31.1903 18.5818 31.1679 18.4252 31.1455 18.2685C31.1231 18.1343 31.1231 18.0224 31.1455 17.8881ZM48.562 14.5985C48.5396 16.3664 48.3606 18.3133 46.5256 19.477C45.6081 20.0588 43.9744 20.2826 42.8555 20.2378C37.4847 20.0588 36.5001 14.8894 36.7686 11.0851C36.9476 8.80249 37.9994 5.55762 40.5282 4.57297C42.8331 3.63308 46.4137 3.99113 47.8011 6.0947C48.2711 6.85557 48.6068 8.08638 48.4277 9.0934C48.1592 10.8613 46.2123 10.3466 45.8318 9.0934C45.6304 8.39968 45.3843 7.79546 44.7577 7.41503C43.3031 6.51989 41.5128 7.25838 40.6624 8.60108C39.6778 10.0781 39.5659 12.2264 39.9016 13.9495C40.0582 14.6432 40.3044 15.337 40.6624 16.0083C41.1995 16.9482 42.6317 17.5301 43.773 17.2391C45.3843 16.8363 45.7423 15.7845 45.7423 14.5314V14.509C45.3619 14.509 45.0262 14.4866 44.8919 14.4866C44.5563 14.4866 44.2206 14.4195 43.9297 14.3076C43.6611 14.2181 43.4597 14.0838 43.3255 13.8824C43.1688 13.7034 43.1017 13.5019 43.1017 13.2782C43.1017 13.0991 43.1241 12.9425 43.1464 12.7635C43.1912 12.6292 43.3031 12.4725 43.4374 12.3159C43.5269 12.2488 43.6835 12.1816 43.8625 12.1369C44.0416 12.0921 44.2206 12.025 44.4444 12.0026C44.6234 11.9802 44.8472 11.9802 45.0486 11.9802H47.085C47.4207 11.9578 47.913 12.0697 48.1592 12.2711C48.2487 12.383 48.3606 12.4949 48.4054 12.6516C48.4501 12.7858 48.4949 12.9649 48.5172 13.1439C48.5396 13.3229 48.562 13.5243 48.562 13.681V14.5985ZM62.5345 18.2238C62.5121 18.7161 62.4674 19.3651 61.9974 19.7231C61.2813 20.305 60.1176 19.9245 59.6477 19.2979C58.6407 18.0671 57.835 16.6797 56.9623 15.3594L55.0825 12.5173C54.5678 11.7117 54.0083 10.6375 53.4041 9.76476L53.337 18.3133V18.5147C53.337 18.9846 53.1803 19.477 52.7999 19.8126C52.6656 19.9245 52.4642 20.0141 52.2181 20.0588C50.7411 20.3274 50.2935 19.007 50.383 17.9552V17.5748L50.4278 15.8293L50.4502 12.5844C50.4726 11.6445 50.4726 10.6375 50.4726 9.58573C50.4502 8.31016 50.4949 6.76605 50.5621 5.53524C50.5844 5.22195 50.6516 4.93103 50.8082 4.66249C50.8754 4.4387 51.0544 4.25968 51.2782 4.12541C51.6139 3.924 52.2181 3.85686 52.5985 3.94638C52.7552 3.99113 52.8894 4.08065 53.0461 4.17016C53.1803 4.28205 53.337 4.41632 53.4489 4.55059C53.6055 4.70724 53.7174 4.88627 53.8293 5.02054C53.9188 5.19957 54.0083 5.33384 54.1202 5.49049L54.3664 5.84854L59.5358 13.9943V12.5173C59.5358 11.5774 59.5134 10.5704 59.491 9.49622C59.491 8.24303 59.491 6.7213 59.5582 5.46811C59.5582 5.17719 59.6477 4.88627 59.782 4.59535C60.0729 3.83449 61.3708 3.58832 62.0198 4.14778C62.1093 4.2373 62.2212 4.37157 62.266 4.50584C62.3331 4.68486 62.3779 4.84151 62.4002 5.02054C62.445 5.22195 62.4674 5.37859 62.4674 5.58C62.4674 9.29481 62.4897 13.2782 62.5121 16.993C62.5121 17.4182 62.5569 17.7986 62.5345 18.2238ZM65.0409 17.8881V17.5524L65.0633 15.7845L65.0856 12.4949C65.108 11.555 65.108 10.5256 65.108 9.45146C65.108 8.3773 65.108 7.63881 65.1528 6.60941V6.51989C65.1752 6.22897 65.1975 5.8933 65.1975 5.58C65.2199 5.28908 65.3094 4.99816 65.4437 4.70724C65.5556 4.48346 65.6899 4.32681 65.9136 4.17016C66.1374 4.05827 66.3836 3.99113 66.6074 3.99113C66.8312 3.99113 67.0326 4.01351 67.2116 4.03589C67.3906 4.05827 67.5696 4.14778 67.7263 4.30443C67.8382 4.39395 67.9053 4.50584 67.9724 4.66249C68.0172 4.84151 68.0843 4.99816 68.1067 5.17719C68.1291 5.37859 68.1515 5.55762 68.1515 5.73665C68.1515 5.93805 68.1291 6.0947 68.1291 6.27373V6.65416L67.9948 18.2685V18.4923C67.9948 18.5818 67.9724 18.7161 67.9501 18.8951C67.9053 19.0518 67.8606 19.2084 67.7934 19.3875C67.7039 19.5441 67.6144 19.6784 67.4577 19.7903C67.3235 19.9245 67.1221 19.9917 66.8759 20.0364C66.4731 20.1259 66.0703 20.0812 65.7346 19.9245C65.578 19.8126 65.4437 19.6784 65.3542 19.477C65.3094 19.4322 65.287 19.3875 65.287 19.3427C65.2647 19.2979 65.2199 19.2532 65.1975 19.2084C65.1528 19.0518 65.108 18.8951 65.108 18.7161C65.0856 18.5818 65.0633 18.4252 65.0409 18.2685C65.0185 18.1343 65.0185 18.0224 65.0409 17.8881ZM82.0761 4.77438C82.2327 4.95341 82.3222 5.15481 82.3222 5.37859C82.3222 5.55762 82.2999 5.75903 82.2775 5.91568C82.2327 6.07232 82.1432 6.22897 81.9866 6.38562C81.8523 6.47513 81.6733 6.54227 81.4942 6.58703C81.2928 6.65416 81.0914 6.67654 80.8453 6.7213C80.6439 6.74368 80.4201 6.74368 80.1963 6.74368H79.055C78.5179 6.76605 78.0032 6.76605 77.4885 6.76605C77.5333 8.60108 77.4661 10.8389 77.4661 15.7622V17.4629C77.4661 17.5972 77.4661 17.6867 77.4885 17.7986C77.4885 17.9105 77.4885 18.0224 77.4661 18.1566C77.4437 18.2909 77.4214 18.4476 77.399 18.6266C77.399 18.7609 77.3542 18.8951 77.3095 19.0518C77.2423 19.1189 77.22 19.1637 77.22 19.1861L77.1528 19.3203C77.0633 19.4994 76.9067 19.6336 76.7276 19.7455C76.4143 19.9022 76.0339 19.9469 75.6311 19.8574C75.3849 19.835 75.1835 19.7679 75.0493 19.656C74.915 19.5217 74.8255 19.4098 74.7583 19.2532C74.6688 19.0742 74.6241 18.9399 74.6017 18.7832C74.5569 18.649 74.5346 18.4699 74.5346 18.3581V6.85557C74.1765 6.85557 71.9834 6.83319 71.5806 6.76605C71.4016 6.74368 70.9316 6.67654 70.7079 6.60941C70.3722 6.51989 70.1484 6.38562 69.9694 6.18422C69.8127 6.00519 69.7232 5.78141 69.7232 5.53524C69.7232 5.35622 69.7232 5.17719 69.768 5.02054C69.8127 4.86389 69.9246 4.70724 70.126 4.57297C70.2379 4.48346 70.5288 4.32681 70.775 4.25968C70.954 4.19254 71.2002 4.14778 71.4463 4.12541C71.6925 4.10303 71.9163 4.10303 72.1848 4.10303C73.2366 4.10303 74.1317 4.10303 75.1612 4.08065C76.8843 4.05827 78.6074 4.08065 80.3082 4.12541C80.6886 4.14778 81.0467 4.19254 81.4047 4.34919C81.6733 4.4387 81.9194 4.57297 82.0761 4.77438ZM83.9008 17.8881V17.5524L83.9232 15.7845L83.9455 12.4949C83.9679 11.555 83.9679 10.5256 83.9679 9.45146C83.9679 8.3773 83.9679 7.63881 84.0127 6.60941V6.51989C84.0351 6.22897 84.0574 5.8933 84.0574 5.58C84.0798 5.28908 84.1693 4.99816 84.3036 4.70724C84.4155 4.48346 84.5498 4.32681 84.7735 4.17016C84.9973 4.05827 85.2435 3.99113 85.4673 3.99113C85.6911 3.99113 85.8925 4.01351 86.0715 4.03589C86.2505 4.05827 86.4295 4.14778 86.5862 4.30443C86.6981 4.39395 86.7652 4.50584 86.8323 4.66249C86.8771 4.84151 86.9442 4.99816 86.9666 5.17719C86.989 5.37859 87.0114 5.55762 87.0114 5.73665C87.0114 5.93805 86.989 6.0947 86.989 6.27373V6.65416L86.8547 18.2685V18.4923C86.8547 18.5818 86.8323 18.7161 86.81 18.8951C86.7652 19.0518 86.7205 19.2084 86.6533 19.3875C86.5638 19.5441 86.4743 19.6784 86.3176 19.7903C86.1834 19.9245 85.982 19.9917 85.7358 20.0364C85.333 20.1259 84.9302 20.0812 84.5945 19.9245C84.4379 19.8126 84.3036 19.6784 84.2141 19.477C84.1693 19.4322 84.1469 19.3875 84.1469 19.3427C84.1246 19.2979 84.0798 19.2532 84.0574 19.2084C84.0127 19.0518 83.9679 18.8951 83.9679 18.7161C83.9455 18.5818 83.9232 18.4252 83.9008 18.2685C83.8784 18.1343 83.8784 18.0224 83.9008 17.8881ZM93.4401 4.61773C97.4458 3.096 99.9522 5.24432 101.093 8.2654C101.966 10.548 102.056 13.3453 101.429 15.4041C101.25 16.0755 101.004 16.6349 100.691 17.1944C99.9522 18.4699 98.699 19.2979 97.3116 19.6112C95.387 20.0588 93.1939 19.5665 91.6722 18.0895C89.8372 16.2992 89.3448 13.211 89.5239 10.8389C89.6805 8.64584 90.9337 5.55762 93.4401 4.61773ZM98.6766 14.1957C99.0347 12.8082 98.9899 10.8837 98.4752 9.33957C97.8263 7.41503 96.5507 6.29611 94.3128 7.34789C92.9925 7.97449 92.5226 9.78714 92.4331 11.2194C92.3212 12.7635 92.5226 14.7551 93.5072 15.9412C94.2681 16.8363 95.387 17.172 96.394 16.9482C97.222 16.7692 97.8486 16.2097 98.2738 15.3146C98.4528 14.9789 98.5871 14.5985 98.6766 14.1957ZM115.814 18.2238C115.792 18.7161 115.747 19.3651 115.277 19.7231C114.561 20.305 113.397 19.9245 112.927 19.2979C111.92 18.0671 111.115 16.6797 110.242 15.3594L108.362 12.5173C107.848 11.7117 107.288 10.6375 106.684 9.76476L106.617 18.3133V18.5147C106.617 18.9846 106.46 19.477 106.08 19.8126C105.945 19.9245 105.744 20.0141 105.498 20.0588C104.021 20.3274 103.573 19.007 103.663 17.9552V17.5748L103.708 15.8293L103.73 12.5844C103.752 11.6445 103.752 10.6375 103.752 9.58573C103.73 8.31016 103.775 6.76605 103.842 5.53524C103.864 5.22195 103.931 4.93103 104.088 4.66249C104.155 4.4387 104.334 4.25968 104.558 4.12541C104.894 3.924 105.498 3.85686 105.878 3.94638C106.035 3.99113 106.169 4.08065 106.326 4.17016C106.46 4.28205 106.617 4.41632 106.729 4.55059C106.885 4.70724 106.997 4.88627 107.109 5.02054C107.199 5.19957 107.288 5.33384 107.4 5.49049L107.646 5.84854L112.816 13.9943V12.5173C112.816 11.5774 112.793 10.5704 112.771 9.49622C112.771 8.24303 112.771 6.7213 112.838 5.46811C112.838 5.17719 112.927 4.88627 113.062 4.59535C113.353 3.83449 114.651 3.58832 115.3 4.14778C115.389 4.2373 115.501 4.37157 115.546 4.50584C115.613 4.68486 115.658 4.84151 115.68 5.02054C115.725 5.22195 115.747 5.37859 115.747 5.58C115.747 9.29481 115.77 13.2782 115.792 16.993C115.792 17.4182 115.837 17.7986 115.814 18.2238ZM135.037 5.17719C135.06 5.37859 135.06 5.55762 135.06 5.73665V6.65416L134.925 18.2685V18.4923C134.925 18.5818 134.903 18.7161 134.858 18.8951C134.836 19.0518 134.769 19.2084 134.702 19.3875C134.634 19.5441 134.545 19.6784 134.388 19.7903C134.254 19.9245 134.053 19.9917 133.806 20.0364C133.381 20.1259 133.001 20.0812 132.665 19.9245C132.486 19.8126 132.352 19.6784 132.262 19.477C132.218 19.4322 132.195 19.3875 132.173 19.3427C132.173 19.2979 132.15 19.2532 132.128 19.2084C132.061 19.0518 132.039 18.8951 132.016 18.7161C132.016 18.5818 131.994 18.4252 131.971 18.2685C131.927 18.1343 131.927 18.0224 131.927 17.8881C131.971 17.7986 131.971 17.6867 131.971 17.5524L131.994 15.7845L132.016 12.9649H130.808L126.265 12.9872L126.22 18.2685V18.4923C126.22 18.5818 126.198 18.7161 126.153 18.8951C126.131 19.0518 126.064 19.2084 125.996 19.3875C125.929 19.5441 125.84 19.6784 125.683 19.7903C125.549 19.9245 125.347 19.9917 125.101 20.0364C124.676 20.1259 124.296 20.0812 123.96 19.9245C123.781 19.8126 123.669 19.6784 123.535 19.477C123.512 19.4322 123.49 19.3875 123.49 19.3427L123.423 19.2084C123.356 19.0518 123.333 18.8951 123.311 18.7161C123.311 18.5818 123.266 18.4252 123.244 18.2685C123.222 18.1343 123.222 18.0224 123.244 17.8881V17.5524L123.266 15.7845L123.311 12.4949C123.333 11.555 123.333 10.5256 123.333 9.45146C123.311 8.3773 123.333 7.63881 123.378 6.60941V6.51989C123.401 6.22897 123.401 5.8933 123.423 5.58C123.445 5.28908 123.512 4.99816 123.669 4.70724C123.759 4.48346 123.915 4.32681 124.117 4.17016C124.34 4.05827 124.587 3.99113 124.833 3.99113C125.057 3.99113 125.236 4.01351 125.415 4.03589C125.616 4.05827 125.773 4.14778 125.929 4.30443C126.041 4.39395 126.131 4.50584 126.175 4.66249C126.243 4.84151 126.287 4.99816 126.31 5.17719C126.332 5.37859 126.332 5.55762 126.332 5.73665V6.65416L126.287 10.3466C126.534 10.3466 126.824 10.3466 127.25 10.3242C128.794 10.3242 130.315 10.369 131.994 10.369H132.016C132.016 9.04865 132.039 7.86259 132.083 6.51989C132.083 6.22897 132.106 5.8933 132.128 5.58C132.15 5.28908 132.218 4.99816 132.374 4.70724C132.441 4.48346 132.62 4.32681 132.844 4.17016C133.046 4.05827 133.292 3.99113 133.538 3.99113C133.762 3.99113 133.963 4.01351 134.12 4.03589C134.299 4.05827 134.5 4.14778 134.634 4.30443C134.769 4.39395 134.836 4.50584 134.881 4.66249C134.948 4.84151 134.97 4.99816 135.037 5.17719ZM150.666 18.4028C150.688 18.5818 150.711 18.7385 150.711 18.9399C150.711 19.1189 150.666 19.2756 150.554 19.4322C150.464 19.5665 150.308 19.7231 150.106 19.8126C149.726 20.0364 149.345 20.1036 148.92 20.0364C148.741 19.9917 148.54 19.9022 148.361 19.7455C148.316 19.7008 148.271 19.6784 148.249 19.6336C148.227 19.6112 148.182 19.5441 148.137 19.5217C148.003 19.3875 147.913 19.2308 147.824 19.0965C147.757 18.9623 147.689 18.828 147.6 18.6714C147.533 18.5595 147.466 18.4476 147.443 18.3357C147.399 18.2238 147.354 18.0895 147.331 17.9776L146.861 16.8811C144.825 16.8811 142.744 16.9035 140.707 16.8811L140.237 17.9776C140.193 18.0895 140.17 18.2238 140.126 18.3357C140.081 18.4476 140.036 18.5595 139.969 18.6714C139.879 18.828 139.812 18.9623 139.723 19.0965C139.656 19.2308 139.566 19.3875 139.432 19.5217C139.387 19.5441 139.342 19.6112 139.32 19.6336C139.298 19.6784 139.253 19.7008 139.208 19.7455C139.029 19.9022 138.828 19.9917 138.649 20.0364C138.223 20.1036 137.843 20.0364 137.463 19.8126C137.261 19.7231 137.105 19.5665 137.015 19.4322C136.903 19.2756 136.858 19.1189 136.858 18.9399C136.858 18.7385 136.881 18.5818 136.903 18.4028C136.925 18.2685 136.97 18.1119 137.015 18C137.06 17.8657 137.082 17.821 137.082 17.7986L141.737 6.34086L141.871 5.98281C141.938 5.80378 142.028 5.66951 142.095 5.46811C142.162 5.28908 142.229 5.13243 142.341 4.95341C142.431 4.77438 142.565 4.61773 142.677 4.48346C142.789 4.34919 142.923 4.25968 143.057 4.19254C143.482 4.03589 144.087 4.03589 144.512 4.19254C144.646 4.25968 144.78 4.34919 144.892 4.48346C145.004 4.61773 145.116 4.77438 145.228 4.95341C145.34 5.13243 145.407 5.28908 145.474 5.46811C145.541 5.66951 145.631 5.80378 145.698 5.98281L145.832 6.34086L150.487 17.7986C150.487 17.821 150.509 17.8657 150.554 18C150.599 18.1119 150.643 18.2685 150.666 18.4028ZM145.765 13.9048L145.362 12.9201C144.982 12.0697 144.579 11.1298 144.131 10.1676C144.019 9.89903 143.885 9.60811 143.773 9.33957C143.684 9.60811 143.549 9.89903 143.438 10.1676C142.99 11.1298 142.587 12.0697 142.207 12.9201L141.804 13.9048H145.765ZM164.389 16.165C165.194 17.8657 162.576 19.5665 160.808 19.9917C158.839 20.4169 156.355 19.9245 154.609 18.4699C152.528 16.7468 152.394 13.3901 152.595 10.9508C152.752 8.75773 154.027 5.96043 156.444 4.61773C158.279 3.56595 161.3 3.83449 162.777 5.19957C163.717 6.02757 165.194 8.48919 163.203 8.98151C162.375 9.2053 161.905 8.60108 161.479 8.064C160.025 6.34086 157.429 6.90032 156.534 8.82486C155.594 10.8389 155.303 13.8824 156.556 15.6726C157.541 17.0825 159.465 17.5077 160.987 16.6573C161.479 16.4111 162.084 15.695 162.777 15.4936C163.314 15.3146 164.075 15.516 164.389 16.165ZM177.17 18.3133C177.282 18.5371 177.305 18.7385 177.193 18.9846C177.126 19.2084 177.014 19.3875 176.812 19.5217C176.633 19.656 176.499 19.7679 176.32 19.835C176.141 19.9245 175.962 19.9469 175.738 19.9245C175.559 19.9245 175.425 19.8574 175.268 19.7679C175.112 19.6784 174.933 19.5665 174.798 19.4546C174.619 19.2979 174.463 19.1861 174.351 19.0518C174.216 18.8951 174.082 18.7385 173.97 18.6266L173.702 18.3357L169.405 13.8376L169.472 18.3357V18.5371C169.472 18.649 169.427 18.8056 169.405 18.9399C169.36 19.1189 169.316 19.2756 169.248 19.4546C169.204 19.6336 169.069 19.7455 168.957 19.8574C168.801 19.9917 168.599 20.0812 168.376 20.1036C167.928 20.2378 167.57 20.1931 167.19 20.0141C167.033 19.9245 166.899 19.7679 166.787 19.5665C166.764 19.5217 166.742 19.477 166.72 19.4546C166.72 19.4098 166.697 19.3651 166.675 19.2979C166.585 19.1413 166.541 18.9846 166.541 18.8504C166.518 18.6714 166.496 18.5371 166.473 18.3581C166.451 18.2462 166.451 18.1119 166.451 18C166.473 17.8657 166.473 17.7538 166.473 17.6196L166.451 15.8517L166.429 12.5621C166.429 11.5998 166.406 10.5704 166.362 9.47384C166.339 8.39968 166.339 7.66119 166.362 6.63178V6.54227C166.406 6.22897 166.406 5.8933 166.429 5.60238C166.429 5.28908 166.496 4.99816 166.63 4.70724C166.72 4.48346 166.876 4.30443 167.1 4.17016C167.324 4.03589 167.548 3.99113 167.816 3.94638C168.018 3.94638 168.219 3.99113 168.398 4.01351C168.577 4.03589 168.756 4.10303 168.935 4.25968C169.025 4.34919 169.114 4.46108 169.159 4.64011C169.248 4.77438 169.293 4.95341 169.316 5.15481C169.338 5.33384 169.36 5.51286 169.36 5.71427V6.63178L169.383 9.36195C169.853 8.93676 170.323 8.48919 170.77 7.99686C171.576 7.16886 172.359 6.36324 173.165 5.60238L173.232 5.53524C173.478 5.31146 173.724 5.0653 173.97 4.86389C174.172 4.64011 174.463 4.4387 174.798 4.32681C175.022 4.19254 175.268 4.14778 175.537 4.17016C175.805 4.19254 176.029 4.30443 176.23 4.4387C176.387 4.57297 176.544 4.68486 176.633 4.81913C176.768 4.93103 176.835 5.11005 176.857 5.28908C176.857 5.44573 176.835 5.58 176.768 5.73665C176.678 5.87092 176.589 6.04995 176.477 6.18422C176.342 6.36324 176.23 6.51989 176.074 6.65416C175.962 6.81081 175.805 6.9227 175.693 7.05697L175.402 7.34789L171.218 11.6222C172.135 12.5397 173.232 13.6586 173.746 14.1957C174.552 15.0237 175.291 15.8517 176.007 16.6797L176.074 16.7468C176.298 16.993 176.521 17.2391 176.7 17.4853C176.924 17.7315 177.081 18 177.17 18.3133ZM190.672 13.4124C190.963 14.2628 190.963 15.5831 190.694 16.3888C189.732 19.7455 184.406 20.9092 181.363 19.2308C180.4 18.6937 179.729 17.9105 179.259 16.9482C178.923 16.2769 179.058 15.1132 179.998 14.8894C180.624 14.7551 181.542 14.867 181.9 15.6279C182.213 16.2545 182.884 16.7916 183.578 17.1272C185.547 17.7986 187.808 16.7692 187.808 15.0461C187.808 13.6362 186.957 13.2334 185.682 12.9201C184.272 12.6292 182.705 12.7411 181.34 12.1369C178.61 10.9956 178.476 7.12411 180.445 5.24432C181.407 4.39395 182.75 4.05827 184.361 3.99113C186.152 3.924 188.121 4.34919 189.173 5.24432C189.934 5.84854 190.963 7.37027 189.822 8.064C188.882 8.66822 188.099 7.70595 187.472 7.25838C186.666 6.65416 185.324 6.47513 184.294 6.58703C182.996 6.74368 181.944 7.4374 182.056 8.78011C182.124 9.74238 183.153 10.0557 184.026 10.1676C185.346 10.3466 186.733 10.3242 188.009 10.8165C189.307 11.3312 190.292 12.204 190.672 13.4124ZM211.515 5.15481C211.649 5.82616 211.515 6.58703 211.336 7.14649C210.598 9.47384 209.367 13.1663 208.74 14.8446C208.158 16.3888 207.487 19.007 205.764 19.7455C203.146 20.8197 202.072 16.5454 201.333 14.8894C200.416 12.8754 199.699 10.4809 198.939 8.42205C198.536 7.236 197.573 4.70724 199.319 4.17016C199.498 4.12541 199.699 4.05827 199.878 4.03589C200.08 4.03589 200.259 4.05827 200.46 4.17016C200.617 4.2373 200.774 4.30443 200.885 4.41632C200.997 4.57297 201.109 4.70724 201.221 4.86389C201.311 5.0653 201.378 5.22195 201.445 5.37859C201.512 5.58 201.624 5.75903 201.669 5.8933L201.803 6.27373L205.025 15.4712L208.203 6.29611L208.36 5.91568C208.405 5.78141 208.472 5.60238 208.539 5.40097C208.606 5.24432 208.673 5.08768 208.785 4.90865C208.875 4.752 208.986 4.59535 209.098 4.4387C209.188 4.32681 209.345 4.2373 209.456 4.17016C209.68 4.05827 209.882 4.03589 210.038 4.03589C210.217 4.05827 210.419 4.12541 210.598 4.17016C211.157 4.32681 211.426 4.70724 211.515 5.15481ZM213.861 4.2373C214.219 4.05827 214.689 4.03589 215.181 4.03589H223.282C223.685 4.03589 224.222 3.94638 224.603 4.14778C226.214 5.0653 223.439 9.27243 222.947 10.2347C222.007 12.0026 221.403 13.1663 220.463 14.9342C219.859 16.1426 219.053 17.5524 218.359 18.7161C217.934 19.4546 217.285 20.2602 216.256 19.7903C215.472 19.3651 215.249 18.4476 215.607 17.7538C216.166 16.7468 216.703 15.695 217.24 14.688C218.046 13.1663 218.695 11.8012 219.5 10.3018C219.993 9.4067 221.335 7.61643 221.134 6.58703C220.082 6.49751 219.321 6.54227 218.314 6.54227H216.144C215.092 6.54227 213.548 6.85557 213.391 5.37859C213.324 4.752 213.525 4.41632 213.861 4.2373Z" fill="black"/>
</svg>
