<svg preserveAspectRatio="none" width="100%" height="100%" overflow="visible" style="display: block;" viewBox="0 0 251.054 251.054" fill="none" xmlns="http://www.w3.org/2000/svg">
<g id="Sun">
<path id="Star 2" d="M122.346 42.6731C122.64 38.7366 128.414 38.7366 128.707 42.6731L131.322 77.7489C131.565 81.0118 135.977 81.8365 137.383 78.8818L152.491 47.119C154.187 43.5543 159.571 45.6403 158.423 49.417L148.19 83.0686C147.238 86.199 151.054 88.5619 153.432 86.3145L178.995 62.1544C181.863 59.443 186.131 63.3332 183.696 66.4399L161.997 94.1226C159.979 96.6977 162.684 100.28 165.713 99.043L198.277 85.7486C201.931 84.2566 204.505 89.4256 201.112 91.4429L170.879 109.418C168.067 111.09 169.295 115.407 172.566 115.348L207.734 114.715C211.68 114.644 212.213 120.394 208.321 121.049L173.636 126.889C170.409 127.432 169.995 131.901 173.067 133.028L206.088 145.142C209.794 146.501 208.214 152.055 204.347 151.26L169.895 144.176C166.69 143.517 164.689 147.535 167.147 149.695L193.562 172.919C196.527 175.526 193.047 180.134 189.729 177.996L160.162 158.944C157.412 157.172 154.095 160.196 155.606 163.098L171.848 194.296C173.671 197.797 168.761 200.837 166.44 197.645L145.752 169.199C143.827 166.553 139.642 168.174 140.002 171.426L143.878 206.385C144.313 210.309 138.636 211.37 137.625 207.554L128.61 173.556C127.771 170.393 123.283 170.393 122.444 173.556L113.429 207.554C112.417 211.37 106.741 210.309 107.176 206.385L111.051 171.426C111.412 168.174 107.226 166.553 105.302 169.199L84.6142 197.645C82.2924 200.837 77.3829 197.797 79.2058 194.296L95.448 163.098C96.9589 160.196 93.6418 157.172 90.8915 158.944L61.3248 177.996C58.0066 180.134 54.5268 175.526 57.4914 172.919L83.907 149.695C86.3643 147.535 84.3635 143.517 81.1586 144.176L46.7064 151.26C42.8399 152.055 41.2596 146.501 44.9656 145.142L77.9869 133.028C81.0587 131.901 80.6445 127.432 77.418 126.889L42.7331 121.049C38.8404 120.394 39.3733 114.644 43.32 114.715L78.4874 115.348C81.7588 115.407 82.9871 111.09 80.1747 109.418L49.9415 91.4429C46.5485 89.4256 49.1224 84.2566 52.7769 85.7486L85.3408 99.043C88.37 100.28 91.075 96.6977 89.0565 94.1226L67.3581 66.4399C64.923 63.3332 69.1903 59.443 72.0591 62.1544L97.6216 86.3145C99.9995 88.5619 103.816 86.199 102.864 83.0686L92.6308 49.417C91.4824 45.6403 96.8668 43.5544 98.5625 47.1191L113.671 78.8819C115.077 81.8365 119.489 81.0118 119.732 77.7489L122.346 42.6731Z" fill="var(--fill-0, #FFB44A)"/>
<circle id="Ellipse 412" cx="112.182" cy="133.033" r="12.928" fill="var(--fill-0, white)"/>
<circle id="Ellipse 413" cx="140.123" cy="125.944" r="13.345" fill="var(--fill-0, white)"/>
<circle id="Ellipse 414" cx="114.267" cy="135.953" r="8.34065" fill="var(--fill-0, black)"/>
<circle id="Ellipse 415" cx="140.123" cy="129.28" r="8.34065" fill="var(--fill-0, black)"/>
</g>
</svg>
