<svg preserveAspectRatio="none" width="100%" height="100%" overflow="visible" style="display: block;" viewBox="0 0 126.286 133" fill="none" xmlns="http://www.w3.org/2000/svg">
<g id="iggy">
<path id="Vector 265" d="M31.199 15.4625C16.4943 15.4625 -8.67803 113.934 3.00058 125.347C14.6792 136.759 112.371 135.916 123.399 119.373C132.917 105.095 116.966 22.411 103.639 22.411C92.5283 22.411 93.5214 44.8763 88.2113 44.0092C77.8579 42.3185 73.2586 1.67561e-05 61.3102 0C49.3619 -1.67561e-05 47.4753 38.792 41.5074 36.0792C35.5394 33.3665 44.6884 15.4625 31.199 15.4625Z" fill="var(--fill-0, #A172FF)"/>
<circle id="Ellipse 467" cx="36.7433" cy="83.9888" r="22.5173" fill="var(--fill-0, white)"/>
<circle id="Ellipse 468" cx="86.3733" cy="83.9888" r="22.5173" fill="var(--fill-0, white)"/>
<circle id="Ellipse 469" cx="35.0838" cy="88.0838" r="16.0838" fill="var(--fill-0, black)"/>
<circle id="Ellipse 470" cx="82.8278" cy="88.0838" r="16.0838" fill="var(--fill-0, black)"/>
</g>
</svg>
