<svg preserveAspectRatio="none" width="100%" height="100%" overflow="visible" style="display: block;" viewBox="0 0 174 145" fill="none" xmlns="http://www.w3.org/2000/svg">
<g id="Cloud">
<path id="Vector 198" d="M121.506 25.7075C102.61 -2.84078 46.6771 5.63348 46.4077 44.6165C23.9474 24.2248 -9.6284 66.0294 16.6034 86.8633C-4.45374 111.57 35.6718 136.186 53.5318 118.369C77.8296 151.622 134.422 135.655 133.753 100.598C159.682 103.638 180.423 77.5491 156.019 61.5038C176.921 38.1239 144.769 6.64051 121.506 25.7075Z" fill="var(--fill-0, #4894FF)"/>
<circle id="Ellipse 408" cx="13.5512" cy="13.5512" r="13.5512" transform="matrix(-0.993131 0.117006 0.117006 0.993131 120.82 50.764)" fill="var(--fill-0, white)"/>
<circle id="Ellipse 409" cx="14.1141" cy="14.1141" r="14.1141" transform="matrix(-0.993131 0.117006 0.117006 0.993131 83.903 57.5761)" fill="var(--fill-0, white)"/>
<path id="Ellipse 410" d="M102.041 63.913C102.615 68.7907 107.035 72.279 111.913 71.7044C116.791 71.1297 120.279 66.7096 119.704 61.8319C119.13 56.9542 114.71 53.4659 109.832 54.0405C104.954 54.6152 101.466 59.0353 102.041 63.913Z" fill="var(--fill-0, #0046A8)"/>
<circle id="Ellipse 411" cx="8.87173" cy="8.87173" r="8.87173" transform="matrix(-0.993131 0.117006 0.117006 0.993131 82.6216 61)" fill="var(--fill-0, #0046A8)"/>
</g>
</svg>
