<svg width="127" height="86" viewBox="0 0 127 86" fill="none" xmlns="http://www.w3.org/2000/svg">
<g filter="url(#filter0_d_1101_274)">
<rect x="15.5" y="11.5" width="96" height="55" rx="15.5" stroke="#A38C6F" shape-rendering="crispEdges"/>
<path d="M49.7051 37.144C50.1691 37.448 50.5611 37.808 50.8811 38.224C51.2171 38.624 51.4811 39.12 51.6731 39.712C51.8811 40.368 51.9851 41.032 51.9851 41.704C52.0011 42.36 51.8811 42.976 51.6251 43.552C51.3851 44.112 50.9931 44.608 50.4491 45.04C49.9211 45.456 49.2251 45.752 48.3611 45.928C47.8971 46.04 47.3531 46.128 46.7291 46.192C46.1051 46.256 45.5451 46.288 45.0491 46.288C44.4251 46.304 43.7771 46.304 43.1051 46.288C42.4491 46.288 41.8091 46.224 41.1851 46.096C40.9131 46.016 40.7131 45.88 40.5851 45.688C40.4731 45.48 40.3931 45.248 40.3451 44.992C40.2811 44.848 40.2491 44.704 40.2491 44.56V30.928C40.2491 30.48 40.3371 30.136 40.5131 29.896C40.7051 29.64 40.9531 29.456 41.2571 29.344C41.5611 29.216 41.9051 29.144 42.2891 29.128C42.6731 29.096 43.0731 29.08 43.4891 29.08C43.8091 29.08 44.1291 29.08 44.4491 29.08C44.7851 29.064 45.1211 29.064 45.4571 29.08C45.9851 29.096 46.5291 29.144 47.0891 29.224C47.6651 29.288 48.2091 29.416 48.7211 29.608C48.9611 29.688 49.2171 29.8 49.4891 29.944C49.7611 30.072 49.9771 30.232 50.1371 30.424C50.6491 30.888 51.0251 31.432 51.2651 32.056C51.5211 32.664 51.6331 33.288 51.6011 33.928C51.5691 34.552 51.3931 35.152 51.0731 35.728C50.7691 36.304 50.3131 36.776 49.7051 37.144ZM45.5051 43.504C46.0011 43.472 46.5051 43.416 47.0171 43.336C47.5291 43.256 47.8811 43.104 48.0731 42.88C48.2811 42.624 48.4251 42.328 48.5051 41.992C48.6011 41.64 48.6251 41.288 48.5771 40.936C48.5451 40.568 48.4411 40.224 48.2651 39.904C48.1051 39.568 47.8891 39.304 47.6171 39.112C47.2491 38.824 46.8251 38.64 46.3451 38.56C45.8651 38.464 45.3931 38.416 44.9291 38.416C44.7051 38.416 44.4971 38.424 44.3051 38.44C44.1291 38.44 43.9691 38.464 43.8251 38.512C43.6971 38.544 43.6011 38.616 43.5371 38.728C43.4731 38.84 43.4411 39.008 43.4411 39.232C43.4731 39.648 43.4731 40.064 43.4411 40.48C43.4091 40.896 43.3931 41.296 43.3931 41.68C43.3931 41.904 43.3851 42.152 43.3691 42.424C43.3691 42.68 43.4571 42.896 43.6331 43.072C43.8091 43.248 44.0651 43.368 44.4011 43.432C44.7371 43.496 45.1051 43.52 45.5051 43.504ZM45.9851 31.984C45.4891 31.968 45.0731 31.96 44.7371 31.96C44.4171 31.944 44.1611 31.968 43.9691 32.032C43.7931 32.08 43.6651 32.2 43.5851 32.392C43.5211 32.568 43.4971 32.84 43.5131 33.208C43.5131 33.512 43.5051 33.816 43.4891 34.12C43.4891 34.408 43.4891 34.696 43.4891 34.984C43.4891 35.304 43.5931 35.544 43.8011 35.704C44.0091 35.848 44.2651 35.936 44.5691 35.968C44.8891 36 45.2171 36 45.5531 35.968C45.9051 35.936 46.2091 35.896 46.4651 35.848C47.0411 35.752 47.4811 35.56 47.7851 35.272C48.1051 34.968 48.2891 34.528 48.3371 33.952C48.4011 33.232 48.2091 32.736 47.7611 32.464C47.3291 32.176 46.7371 32.016 45.9851 31.984ZM56.4164 35.896C56.8964 35.656 57.4004 35.488 57.9284 35.392C58.4564 35.28 58.9764 35.256 59.4884 35.32C60.0164 35.368 60.5204 35.504 61.0004 35.728C61.4804 35.936 61.9284 36.24 62.3444 36.64C62.7604 37.056 63.0804 37.512 63.3044 38.008C63.5284 38.504 63.6884 39.056 63.7844 39.664C63.8484 40.08 63.9524 40.464 64.0964 40.816C64.2404 41.168 64.3924 41.52 64.5524 41.872C64.7284 42.224 64.8884 42.576 65.0324 42.928C65.1924 43.28 65.3204 43.648 65.4164 44.032C65.4964 44.4 65.4644 44.76 65.3204 45.112C65.1924 45.448 64.9204 45.656 64.5044 45.736C64.2644 45.784 64.0324 45.768 63.8084 45.688C63.6004 45.592 63.4084 45.464 63.2324 45.304C63.0564 45.128 62.8964 44.944 62.7524 44.752C62.6244 44.544 62.5044 44.352 62.3924 44.176C62.0244 44.656 61.6244 45.032 61.1924 45.304C60.7604 45.56 60.2404 45.728 59.6324 45.808C59.1204 45.872 58.6324 45.888 58.1684 45.856C57.7044 45.824 57.2084 45.736 56.6804 45.592C55.9924 45.416 55.4244 45.112 54.9764 44.68C54.5444 44.232 54.2084 43.72 53.9684 43.144C53.7444 42.552 53.6244 41.92 53.6084 41.248C53.5924 40.576 53.6724 39.912 53.8484 39.256C54.0724 38.392 54.4084 37.688 54.8564 37.144C55.3044 36.6 55.8244 36.184 56.4164 35.896ZM57.0164 38.704C56.7924 38.928 56.6164 39.192 56.4884 39.496C56.3604 39.8 56.2804 40.12 56.2484 40.456C56.2324 40.792 56.2644 41.128 56.3444 41.464C56.4244 41.8 56.5524 42.096 56.7284 42.352C56.8884 42.576 57.1604 42.768 57.5444 42.928C57.9284 43.072 58.3284 43.16 58.7444 43.192C59.2244 43.224 59.6404 43.096 59.9924 42.808C60.3604 42.52 60.6324 42.16 60.8084 41.728C61.0004 41.28 61.0884 40.808 61.0724 40.312C61.0564 39.8 60.9204 39.336 60.6644 38.92C60.4724 38.616 60.2164 38.392 59.8964 38.248C59.5924 38.104 59.2644 38.032 58.9124 38.032C58.5604 38.016 58.2084 38.072 57.8564 38.2C57.5204 38.312 57.2404 38.48 57.0164 38.704ZM76.3411 36.76C76.4691 36.984 76.5331 37.224 76.5331 37.48C76.5491 37.736 76.4931 37.976 76.3651 38.2C76.2211 38.488 76.0131 38.688 75.7411 38.8C75.4851 38.896 75.1971 38.904 74.8771 38.824C74.7331 38.792 74.6051 38.736 74.4931 38.656C74.3811 38.576 74.2611 38.496 74.1331 38.416C74.0211 38.32 73.8851 38.232 73.7251 38.152C73.5811 38.072 73.3891 38.016 73.1491 37.984C72.9091 37.952 72.6451 37.952 72.3571 37.984C72.0851 38.016 71.8371 38.08 71.6131 38.176C71.2611 38.352 70.9811 38.624 70.7731 38.992C70.5651 39.344 70.4291 39.728 70.3651 40.144C70.3011 40.544 70.3091 40.952 70.3891 41.368C70.4851 41.784 70.6611 42.136 70.9171 42.424C71.1091 42.648 71.3571 42.832 71.6611 42.976C71.9811 43.12 72.2851 43.208 72.5731 43.24C72.8451 43.272 73.1171 43.272 73.3891 43.24C73.6611 43.192 73.9251 43.128 74.1811 43.048C74.3731 42.968 74.5891 42.864 74.8291 42.736C75.0691 42.592 75.3011 42.504 75.5251 42.472C75.8131 42.472 76.0371 42.552 76.1971 42.712C76.3571 42.856 76.4691 43.04 76.5331 43.264C76.5971 43.472 76.6051 43.696 76.5571 43.936C76.5251 44.176 76.4371 44.384 76.2931 44.56C76.1011 44.8 75.8291 45.032 75.4771 45.256C75.1251 45.464 74.7891 45.616 74.4691 45.712C74.0851 45.84 73.6531 45.912 73.1731 45.928C72.7091 45.944 72.2691 45.928 71.8531 45.88C71.6611 45.848 71.4611 45.808 71.2531 45.76C71.0451 45.712 70.8451 45.656 70.6531 45.592C69.9491 45.336 69.3571 44.976 68.8771 44.512C68.4131 44.032 68.0531 43.496 67.7971 42.904C67.5571 42.312 67.4211 41.68 67.3891 41.008C67.3571 40.336 67.4371 39.672 67.6291 39.016C67.8051 38.392 68.0211 37.864 68.2771 37.432C68.5491 37 68.8611 36.648 69.2131 36.376C69.5811 36.088 69.9891 35.864 70.4371 35.704C70.8851 35.528 71.3811 35.376 71.9251 35.248C72.4851 35.136 73.0771 35.136 73.7011 35.248C74.3251 35.36 74.8851 35.568 75.3811 35.872C75.7651 36.08 76.0851 36.376 76.3411 36.76ZM83.2751 40.48C83.6271 40.848 83.8831 41.12 84.0431 41.296C84.2191 41.456 84.3391 41.576 84.4031 41.656C84.4831 41.736 84.5391 41.784 84.5711 41.8C84.6031 41.816 84.6591 41.864 84.7391 41.944C84.8191 42.024 84.9471 42.152 85.1231 42.328C85.2991 42.488 85.5631 42.752 85.9151 43.12C86.2031 43.408 86.4351 43.744 86.6111 44.128C86.8031 44.496 86.7871 44.896 86.5631 45.328C86.4351 45.552 86.2911 45.712 86.1311 45.808C85.9711 45.888 85.7951 45.92 85.6031 45.904C85.4271 45.888 85.2351 45.832 85.0271 45.736C84.8351 45.64 84.6431 45.52 84.4511 45.376C84.0831 45.104 83.7311 44.792 83.3951 44.44C83.0591 44.072 82.7871 43.792 82.5791 43.6C82.4351 43.456 82.3471 43.36 82.3151 43.312C82.2831 43.28 82.2511 43.256 82.2191 43.24C82.1871 43.208 82.1551 43.176 82.1231 43.144C82.0111 43.032 81.8911 42.92 81.7631 42.808C81.6351 42.696 81.5071 42.576 81.3791 42.448V43.384C81.3791 43.56 81.3871 43.688 81.4031 43.768C81.4031 43.928 81.3951 44.048 81.3791 44.128C81.3311 44.304 81.3071 44.472 81.3071 44.632C81.2911 44.712 81.2751 44.792 81.2591 44.872C81.2431 44.936 81.2191 45.008 81.1871 45.088C81.1711 45.12 81.1551 45.144 81.1391 45.16C81.1391 45.176 81.1391 45.2 81.1391 45.232C81.1231 45.264 81.1071 45.288 81.0911 45.304C81.0911 45.32 81.0831 45.344 81.0671 45.376C80.9871 45.536 80.8591 45.688 80.6831 45.832C80.3791 46.008 80.0031 46.056 79.5551 45.976C79.3151 45.928 79.1311 45.84 79.0031 45.712C78.8591 45.616 78.7631 45.48 78.7151 45.304C78.6831 45.224 78.6511 45.144 78.6191 45.064C78.6031 44.968 78.5791 44.88 78.5471 44.8C78.5151 44.72 78.4991 44.648 78.4991 44.584C78.4991 44.504 78.4991 44.44 78.4991 44.392V30.736C78.4991 30.64 78.4991 30.544 78.4991 30.448C78.4991 30.352 78.5071 30.256 78.5231 30.16C78.5391 30.064 78.5551 29.976 78.5711 29.896C78.6031 29.8 78.6351 29.712 78.6671 29.632C78.7311 29.472 78.8111 29.344 78.9071 29.248C78.9871 29.168 79.0671 29.112 79.1471 29.08C79.2431 29.032 79.3311 28.992 79.4111 28.96C79.4911 28.944 79.5791 28.936 79.6751 28.936C79.7871 28.92 79.8911 28.912 79.9871 28.912C80.2111 28.912 80.4351 28.976 80.6591 29.104C80.8671 29.248 81.0191 29.432 81.1151 29.656C81.2431 29.96 81.3071 30.256 81.3071 30.544C81.3231 30.704 81.3391 30.952 81.3551 31.288C81.3711 31.608 81.3791 31.848 81.3791 32.008V32.104C81.3951 32.632 81.4031 33.136 81.4031 33.616C81.4031 34.096 81.4031 34.616 81.4031 35.176C81.3871 35.736 81.3791 36.272 81.3791 36.784C81.3791 37.28 81.3791 37.776 81.3791 38.272V38.536C81.5071 38.408 81.6351 38.288 81.7631 38.176C81.8911 38.064 82.0111 37.944 82.1231 37.816C82.1871 37.768 82.2511 37.712 82.3151 37.648L82.5791 37.384C82.7871 37.176 83.0591 36.896 83.3951 36.544C83.7311 36.176 84.0831 35.856 84.4511 35.584C84.8511 35.296 85.2351 35.12 85.6031 35.056C85.9871 34.992 86.3071 35.184 86.5631 35.632C86.7871 36.064 86.8031 36.472 86.6111 36.856C86.4351 37.224 86.2031 37.568 85.9151 37.888C85.5631 38.256 85.2991 38.528 85.1231 38.704C84.9471 38.864 84.8191 38.984 84.7391 39.064C84.6591 39.128 84.6031 39.168 84.5711 39.184C84.5391 39.2 84.4831 39.248 84.4031 39.328C84.3391 39.392 84.2191 39.512 84.0431 39.688C83.8831 39.848 83.6271 40.112 83.2751 40.48Z" fill="#765C3A"/>
</g>
<defs>
<filter id="filter0_d_1101_274" x="0" y="0" width="127" height="86" filterUnits="userSpaceOnUse" color-interpolation-filters="sRGB">
<feFlood flood-opacity="0" result="BackgroundImageFix"/>
<feColorMatrix in="SourceAlpha" type="matrix" values="0 0 0 0 0 0 0 0 0 0 0 0 0 0 0 0 0 0 127 0" result="hardAlpha"/>
<feOffset dy="4"/>
<feGaussianBlur stdDeviation="7.5"/>
<feComposite in2="hardAlpha" operator="out"/>
<feColorMatrix type="matrix" values="0 0 0 0 0 0 0 0 0 0 0 0 0 0 0 0 0 0 0.25 0"/>
<feBlend mode="normal" in2="BackgroundImageFix" result="effect1_dropShadow_1101_274"/>
<feBlend mode="normal" in="SourceGraphic" in2="effect1_dropShadow_1101_274" result="shape"/>
</filter>
</defs>
</svg>
