<svg width="305" height="86" viewBox="0 0 305 86" fill="none" xmlns="http://www.w3.org/2000/svg">
<g filter="url(#filter0_d_1101_276)">
<rect x="15" y="11" width="275" height="56" rx="16" fill="#765C3A"/>
<rect x="15" y="11" width="275" height="56" rx="16" fill="url(#paint0_linear_1101_276)" fill-opacity="0.1"/>
<rect x="15.5" y="11.5" width="274" height="55" rx="15.5" stroke="#A38C6F"/>
<path d="M52.5404 39.016C52.6204 39.24 52.6764 39.496 52.7084 39.784C52.7564 40.056 52.7804 40.336 52.7804 40.624C52.7804 40.912 52.7564 41.2 52.7084 41.488C52.6764 41.76 52.6284 42 52.5644 42.208C52.3084 43.104 51.7964 43.856 51.0284 44.464C50.2604 45.056 49.3804 45.488 48.3884 45.76C47.4124 46.032 46.3964 46.128 45.3404 46.048C44.3004 45.968 43.3724 45.704 42.5564 45.256C42.0444 44.968 41.6044 44.616 41.2364 44.2C40.8684 43.784 40.5564 43.32 40.3004 42.808C40.2044 42.632 40.1404 42.432 40.1084 42.208C40.0924 41.968 40.1164 41.744 40.1804 41.536C40.2444 41.312 40.3484 41.12 40.4924 40.96C40.6364 40.784 40.8364 40.664 41.0924 40.6C41.2524 40.568 41.4284 40.552 41.6204 40.552C41.8284 40.552 42.0284 40.584 42.2204 40.648C42.4124 40.696 42.5884 40.784 42.7484 40.912C42.9084 41.024 43.0364 41.184 43.1324 41.392C43.3084 41.728 43.5564 42.04 43.8764 42.328C44.2124 42.6 44.5644 42.824 44.9324 43C45.4604 43.176 45.9884 43.248 46.5164 43.216C47.0604 43.184 47.5484 43.064 47.9804 42.856C48.4284 42.648 48.7884 42.368 49.0604 42.016C49.3324 41.648 49.4684 41.232 49.4684 40.768C49.4684 40.384 49.4124 40.072 49.3004 39.832C49.1884 39.576 49.0284 39.368 48.8204 39.208C48.6284 39.032 48.3884 38.888 48.1004 38.776C47.8284 38.664 47.5244 38.568 47.1884 38.488C46.8044 38.408 46.4124 38.352 46.0124 38.32C45.6284 38.288 45.2364 38.248 44.8364 38.2C44.4364 38.152 44.0444 38.088 43.6604 38.008C43.2764 37.928 42.9004 37.808 42.5324 37.648C41.7964 37.344 41.2364 36.88 40.8524 36.256C40.4684 35.632 40.2364 34.96 40.1564 34.24C40.0924 33.52 40.1804 32.808 40.4204 32.104C40.6604 31.384 41.0444 30.768 41.5724 30.256C42.0844 29.792 42.6924 29.464 43.3964 29.272C44.1164 29.064 44.9084 28.944 45.7724 28.912C46.2524 28.896 46.7324 28.912 47.2124 28.96C47.7084 29.008 48.1804 29.088 48.6284 29.2C49.0924 29.312 49.5164 29.456 49.9004 29.632C50.3004 29.808 50.6444 30.016 50.9324 30.256C51.1404 30.416 51.3484 30.632 51.5564 30.904C51.7644 31.16 51.9244 31.44 52.0364 31.744C52.1484 32.032 52.1804 32.312 52.1324 32.584C52.1004 32.856 51.9324 33.088 51.6284 33.28C51.3724 33.44 51.1244 33.512 50.8844 33.496C50.6604 33.464 50.4444 33.392 50.2364 33.28C50.0284 33.152 49.8284 33.008 49.6364 32.848C49.4444 32.688 49.2684 32.544 49.1084 32.416C48.6764 32.096 48.1404 31.88 47.5004 31.768C46.8604 31.656 46.2604 31.632 45.7004 31.696C45.3484 31.744 45.0204 31.824 44.7164 31.936C44.4124 32.048 44.1484 32.2 43.9244 32.392C43.7164 32.584 43.5484 32.824 43.4204 33.112C43.3084 33.384 43.2684 33.696 43.3004 34.048C43.3164 34.304 43.3884 34.52 43.5164 34.696C43.6604 34.872 43.8284 35.016 44.0204 35.128C44.2284 35.24 44.4524 35.328 44.6924 35.392C44.9324 35.456 45.1724 35.504 45.4124 35.536C46.1324 35.632 46.8524 35.704 47.5724 35.752C48.2924 35.8 48.9964 35.96 49.6844 36.232C50.3884 36.504 50.9884 36.872 51.4844 37.336C51.9804 37.8 52.3324 38.36 52.5404 39.016ZM64.574 40.288C64.542 40.816 64.51 41.352 64.478 41.896C64.446 42.424 64.358 42.936 64.214 43.432C64.086 43.928 63.878 44.376 63.59 44.776C63.318 45.176 62.926 45.496 62.414 45.736C61.966 45.96 61.486 46.112 60.974 46.192C60.462 46.288 59.95 46.328 59.438 46.312C58.926 46.296 58.43 46.216 57.95 46.072C57.47 45.944 57.038 45.76 56.654 45.52C56.27 45.28 55.958 44.968 55.718 44.584C55.478 44.2 55.286 43.784 55.142 43.336C55.014 42.888 54.926 42.424 54.878 41.944C54.83 41.464 54.798 41.016 54.782 40.6C54.718 39.496 54.718 38.408 54.782 37.336C54.782 37.128 54.782 36.896 54.782 36.64C54.782 36.368 54.798 36.104 54.83 35.848C54.878 35.592 54.95 35.36 55.046 35.152C55.142 34.928 55.302 34.76 55.526 34.648C56.006 34.392 56.446 34.376 56.846 34.6C57.262 34.824 57.51 35.288 57.59 35.992C57.638 36.36 57.654 36.768 57.638 37.216C57.638 37.664 57.654 38.072 57.686 38.44C57.702 38.984 57.718 39.576 57.734 40.216C57.75 40.84 57.838 41.4 57.998 41.896C58.174 42.392 58.454 42.768 58.838 43.024C59.238 43.264 59.83 43.272 60.614 43.048C60.982 42.936 61.222 42.656 61.334 42.208C61.462 41.76 61.526 41.096 61.526 40.216C61.526 39.832 61.518 39.408 61.502 38.944C61.486 38.48 61.478 38.024 61.478 37.576C61.478 37.112 61.486 36.688 61.502 36.304C61.534 35.904 61.582 35.6 61.646 35.392C61.726 35.104 61.894 34.888 62.15 34.744C62.406 34.6 62.678 34.528 62.966 34.528C63.254 34.512 63.526 34.568 63.782 34.696C64.038 34.824 64.214 35.032 64.31 35.32C64.406 35.576 64.47 35.904 64.502 36.304C64.55 36.688 64.582 37.112 64.598 37.576C64.614 38.024 64.614 38.488 64.598 38.968C64.598 39.432 64.59 39.872 64.574 40.288ZM66.5939 30.832C66.6259 30.256 66.8019 29.792 67.1219 29.44C67.4579 29.088 67.9299 28.992 68.5379 29.152C68.8259 29.232 69.0339 29.352 69.1619 29.512C69.3059 29.672 69.4019 29.864 69.4499 30.088C69.5139 30.296 69.5459 30.528 69.5459 30.784C69.5459 31.024 69.5459 31.264 69.5459 31.504V34.816C69.5299 34.944 69.5219 35.072 69.5219 35.2C69.5379 35.312 69.5459 35.416 69.5459 35.512V35.824H70.1459C70.3219 35.824 70.4899 35.824 70.6499 35.824C70.8259 35.824 70.9779 35.816 71.1059 35.8C71.9859 35.8 72.7379 35.928 73.3619 36.184C74.0019 36.44 74.5139 36.8 74.8979 37.264C75.2979 37.712 75.5859 38.256 75.7619 38.896C75.9539 39.52 76.0419 40.208 76.0259 40.96C76.0099 41.856 75.8659 42.624 75.5939 43.264C75.3219 43.904 74.9379 44.432 74.4419 44.848C73.9459 45.264 73.3459 45.576 72.6419 45.784C71.9539 45.976 71.1779 46.072 70.3139 46.072C69.3219 46.072 68.5699 46.064 68.0579 46.048C67.5459 46.032 67.1779 45.888 66.9539 45.616C66.7459 45.344 66.6339 44.872 66.6179 44.2C66.6019 43.528 66.5939 42.544 66.5939 41.248C66.5939 40 66.5939 38.768 66.5939 37.552C66.6099 36.336 66.6099 35.112 66.5939 33.88C66.5939 33.72 66.5859 33.552 66.5699 33.376C66.5699 33.2 66.5699 33 66.5699 32.776C66.5699 32.552 66.5699 32.288 66.5699 31.984C66.5699 31.664 66.5779 31.28 66.5939 30.832ZM71.0819 43.384C71.9619 43.336 72.5699 43.096 72.9059 42.664C73.0819 42.424 73.2179 42.136 73.3139 41.8C73.4099 41.464 73.4499 41.128 73.4339 40.792C73.4179 40.456 73.3459 40.136 73.2179 39.832C73.1059 39.512 72.9219 39.248 72.6659 39.04C72.4419 38.848 72.2179 38.712 71.9939 38.632C71.7699 38.536 71.5379 38.48 71.2979 38.464C71.0579 38.432 70.8019 38.424 70.5299 38.44C70.2579 38.44 69.9459 38.448 69.5939 38.464V41.344L69.5459 43.336C69.7059 43.352 69.8739 43.368 70.0499 43.384C70.3539 43.416 70.6979 43.416 71.0819 43.384ZM90.968 40.408C91 40.92 91.016 41.408 91.016 41.872C91.016 42.32 91 42.8 90.968 43.312C90.968 43.504 90.968 43.72 90.968 43.96C90.968 44.2 90.952 44.432 90.92 44.656C90.888 44.88 90.832 45.088 90.752 45.28C90.672 45.472 90.552 45.624 90.392 45.736C90.2 45.864 89.984 45.952 89.744 46C89.504 46.032 89.28 46.016 89.072 45.952C88.864 45.888 88.68 45.768 88.52 45.592C88.376 45.416 88.296 45.168 88.28 44.848C88.232 44.112 88.208 43.376 88.208 42.64C88.208 42.272 88.2 41.92 88.184 41.584C88.184 41.248 88.192 40.776 88.208 40.168C88.208 39.864 88.184 39.52 88.136 39.136C88.088 38.736 87.968 38.456 87.776 38.296C87.632 38.168 87.472 38.096 87.296 38.08C87.12 38.048 86.944 38.064 86.768 38.128C86.608 38.192 86.464 38.312 86.336 38.488C86.208 38.648 86.12 38.856 86.072 39.112C86.072 39.32 86.064 39.536 86.048 39.76C86.048 39.968 86.056 40.168 86.072 40.36C86.088 40.872 86.096 41.36 86.096 41.824C86.096 42.272 86.088 42.752 86.072 43.264C86.056 43.472 86.048 43.696 86.048 43.936C86.064 44.176 86.064 44.416 86.048 44.656C86.032 44.88 85.984 45.088 85.904 45.28C85.84 45.472 85.72 45.624 85.544 45.736C85.352 45.864 85.144 45.944 84.92 45.976C84.712 45.992 84.512 45.96 84.32 45.88C84.144 45.784 83.984 45.64 83.84 45.448C83.712 45.256 83.64 45 83.624 44.68C83.592 44.312 83.568 43.976 83.552 43.672C83.552 43.352 83.552 43.016 83.552 42.664C83.552 42.296 83.56 41.92 83.576 41.536C83.592 41.136 83.584 40.752 83.552 40.384C83.552 40.272 83.544 40.144 83.528 40C83.528 39.84 83.52 39.68 83.504 39.52C83.504 39.36 83.488 39.208 83.456 39.064C83.44 38.904 83.408 38.776 83.36 38.68C83.232 38.456 83 38.312 82.664 38.248C82.344 38.184 82.072 38.208 81.848 38.32C81.624 38.432 81.456 38.576 81.344 38.752C81.232 38.928 81.152 39.12 81.104 39.328C81.056 39.536 81.032 39.76 81.032 40C81.032 40.224 81.032 40.44 81.032 40.648C81.032 41.688 81.032 42.592 81.032 43.36C81.048 44.112 80.968 44.72 80.792 45.184C80.712 45.424 80.544 45.608 80.288 45.736C80.048 45.864 79.784 45.928 79.496 45.928C79.224 45.928 78.968 45.864 78.728 45.736C78.488 45.608 78.328 45.408 78.248 45.136C78.2 44.96 78.152 44.712 78.104 44.392C78.072 44.056 78.048 43.688 78.032 43.288C78.016 42.888 78.008 42.488 78.008 42.088C78.008 41.672 78.008 41.296 78.008 40.96V37.504C77.992 37.136 77.984 36.736 77.984 36.304C77.984 35.872 78.048 35.48 78.176 35.128C78.288 34.824 78.464 34.632 78.704 34.552C78.944 34.456 79.192 34.416 79.448 34.432C79.736 34.432 79.96 34.512 80.12 34.672C80.296 34.816 80.424 35 80.504 35.224C80.584 35.432 80.632 35.672 80.648 35.944C80.664 36.2 80.68 36.448 80.696 36.688C80.872 36.288 81.08 35.96 81.32 35.704C81.576 35.432 81.936 35.256 82.4 35.176C83.584 34.952 84.528 35.256 85.232 36.088C85.552 35.768 85.96 35.504 86.456 35.296C86.84 35.152 87.232 35.088 87.632 35.104C88.032 35.104 88.408 35.176 88.76 35.32C89.128 35.464 89.456 35.672 89.744 35.944C90.048 36.216 90.288 36.544 90.464 36.928C90.704 37.44 90.84 38.008 90.872 38.632C90.904 39.256 90.936 39.848 90.968 40.408ZM95.9606 36.904C95.9606 37.352 95.9606 37.856 95.9606 38.416C95.9766 38.976 95.9846 39.56 95.9846 40.168C95.9846 40.76 95.9846 41.352 95.9846 41.944C95.9846 42.52 95.9766 43.056 95.9606 43.552C95.9446 43.792 95.9206 44.056 95.8886 44.344C95.8566 44.616 95.7926 44.872 95.6966 45.112C95.6006 45.352 95.4486 45.552 95.2406 45.712C95.0486 45.856 94.7846 45.92 94.4486 45.904C93.9526 45.872 93.5926 45.656 93.3686 45.256C93.1606 44.856 93.0406 44.296 93.0086 43.576C93.0086 43.208 93.0006 42.784 92.9846 42.304C92.9846 41.824 92.9766 41.336 92.9606 40.84C92.9606 40.344 92.9606 39.864 92.9606 39.4C92.9606 38.92 92.9606 38.488 92.9606 38.104C92.9606 37.88 92.9526 37.608 92.9366 37.288C92.9366 36.968 92.9446 36.64 92.9606 36.304C92.9766 35.968 93.0166 35.648 93.0806 35.344C93.1446 35.024 93.2486 34.76 93.3926 34.552C93.5046 34.424 93.6646 34.328 93.8726 34.264C94.0806 34.184 94.2966 34.144 94.5206 34.144C94.7606 34.144 94.9846 34.184 95.1926 34.264C95.4166 34.344 95.5766 34.456 95.6726 34.6C95.7366 34.696 95.7846 34.832 95.8166 35.008C95.8486 35.184 95.8726 35.384 95.8886 35.608C95.9206 35.816 95.9366 36.04 95.9366 36.28C95.9526 36.504 95.9606 36.712 95.9606 36.904ZM95.0486 32.056C94.5526 32.184 94.1366 32.136 93.8006 31.912C93.4806 31.672 93.2806 31.32 93.2006 30.856C93.1366 30.52 93.1606 30.224 93.2726 29.968C93.3846 29.712 93.5526 29.52 93.7766 29.392C94.0006 29.248 94.2566 29.184 94.5446 29.2C94.8326 29.216 95.1206 29.328 95.4086 29.536C95.6806 29.728 95.8726 29.952 95.9846 30.208C96.1126 30.464 96.1526 30.712 96.1046 30.952C96.0726 31.192 95.9686 31.416 95.7926 31.624C95.6166 31.816 95.3686 31.96 95.0486 32.056ZM108.317 35.416C108.445 35.72 108.453 36.056 108.341 36.424C108.245 36.792 108.061 37.032 107.789 37.144C107.645 37.208 107.453 37.264 107.213 37.312C106.973 37.344 106.709 37.376 106.421 37.408C106.149 37.44 105.877 37.464 105.605 37.48C105.333 37.496 105.101 37.504 104.909 37.504C104.925 37.984 104.941 38.48 104.957 38.992C104.973 39.488 104.989 39.976 105.005 40.456C105.021 40.936 105.029 41.4 105.029 41.848C105.029 42.28 105.021 42.672 105.005 43.024C105.005 43.264 105.005 43.544 105.005 43.864C105.005 44.168 104.981 44.464 104.933 44.752C104.901 45.04 104.845 45.296 104.765 45.52C104.685 45.728 104.565 45.864 104.405 45.928C103.909 46.136 103.453 46.192 103.037 46.096C102.637 46.016 102.349 45.848 102.173 45.592C102.045 45.384 101.949 45.144 101.885 44.872C101.821 44.584 101.773 44.296 101.741 44.008C101.725 43.704 101.717 43.416 101.717 43.144C101.733 42.856 101.741 42.608 101.741 42.4C101.757 41.728 101.765 40.968 101.765 40.12C101.781 39.256 101.789 38.392 101.789 37.528H101.429C101.237 37.528 100.989 37.528 100.685 37.528C100.397 37.512 100.101 37.488 99.7974 37.456C99.5094 37.408 99.2374 37.352 98.9814 37.288C98.7254 37.208 98.5414 37.096 98.4294 36.952C98.2534 36.744 98.1414 36.52 98.0934 36.28C98.0614 36.04 98.0774 35.816 98.1414 35.608C98.2214 35.384 98.3414 35.192 98.5014 35.032C98.6614 34.856 98.8454 34.744 99.0534 34.696C99.3414 34.616 99.7494 34.576 100.277 34.576C100.805 34.56 101.301 34.56 101.765 34.576C101.749 34.416 101.741 34.264 101.741 34.12C101.741 33.96 101.733 33.808 101.717 33.664C101.701 33.472 101.693 33.232 101.693 32.944C101.693 32.64 101.709 32.344 101.741 32.056C101.789 31.752 101.861 31.472 101.957 31.216C102.053 30.944 102.189 30.736 102.365 30.592C102.605 30.4 102.845 30.296 103.085 30.28C103.341 30.248 103.573 30.28 103.781 30.376C104.005 30.472 104.189 30.616 104.333 30.808C104.493 30.984 104.605 31.184 104.669 31.408C104.717 31.6 104.757 31.832 104.789 32.104C104.821 32.36 104.837 32.632 104.837 32.92C104.853 33.208 104.861 33.496 104.861 33.784C104.861 34.072 104.861 34.336 104.861 34.576H105.101C105.341 34.576 105.621 34.568 105.941 34.552C106.261 34.536 106.573 34.544 106.877 34.576C107.197 34.608 107.485 34.688 107.741 34.816C107.997 34.928 108.189 35.128 108.317 35.416ZM132.354 44.368C132.37 44.464 132.378 44.56 132.378 44.656C132.394 44.736 132.402 44.832 132.402 44.944C132.402 45.136 132.346 45.312 132.234 45.472C132.186 45.552 132.122 45.632 132.042 45.712C131.962 45.776 131.866 45.832 131.754 45.88C131.354 46.104 130.93 46.184 130.482 46.12C130.258 46.056 130.058 45.952 129.882 45.808C129.85 45.776 129.826 45.76 129.81 45.76C129.794 45.744 129.778 45.72 129.762 45.688C129.746 45.672 129.73 45.656 129.714 45.64C129.698 45.608 129.674 45.584 129.642 45.568C129.562 45.488 129.498 45.416 129.45 45.352C129.402 45.272 129.354 45.192 129.306 45.112C129.274 45.032 129.234 44.96 129.186 44.896C129.154 44.816 129.114 44.736 129.066 44.656C129.034 44.592 129.002 44.536 128.97 44.488C128.938 44.424 128.914 44.36 128.898 44.296C128.834 44.152 128.794 44.024 128.778 43.912L128.274 42.736C127.17 42.736 126.066 42.744 124.962 42.76C123.874 42.76 122.778 42.752 121.674 42.736L121.17 43.912C121.138 43.976 121.114 44.04 121.098 44.104C121.098 44.168 121.082 44.232 121.05 44.296C121.018 44.36 120.986 44.424 120.954 44.488C120.938 44.536 120.914 44.592 120.882 44.656C120.834 44.736 120.786 44.816 120.738 44.896C120.706 44.96 120.666 45.032 120.618 45.112C120.586 45.192 120.546 45.272 120.498 45.352C120.45 45.416 120.386 45.488 120.306 45.568C120.274 45.584 120.25 45.608 120.234 45.64C120.218 45.656 120.202 45.672 120.186 45.688C120.17 45.72 120.154 45.744 120.138 45.76C120.122 45.76 120.098 45.776 120.066 45.808C119.89 45.952 119.69 46.056 119.466 46.12C119.018 46.184 118.594 46.104 118.194 45.88C118.082 45.832 117.986 45.776 117.906 45.712C117.826 45.632 117.762 45.552 117.714 45.472C117.602 45.312 117.546 45.136 117.546 44.944C117.546 44.832 117.546 44.736 117.546 44.656C117.562 44.56 117.578 44.464 117.594 44.368C117.626 44.224 117.666 44.08 117.714 43.936C117.762 43.792 117.786 43.72 117.786 43.72L122.778 31.432L122.922 31.048C122.954 30.952 122.994 30.864 123.042 30.784C123.09 30.704 123.13 30.608 123.162 30.496C123.242 30.288 123.33 30.104 123.426 29.944C123.474 29.848 123.53 29.76 123.594 29.68C123.658 29.6 123.722 29.52 123.786 29.44C123.882 29.312 124.018 29.208 124.194 29.128C124.418 29.048 124.674 29.008 124.962 29.008C125.266 29.008 125.53 29.048 125.754 29.128C125.93 29.208 126.066 29.312 126.162 29.44C126.274 29.584 126.394 29.752 126.522 29.944C126.618 30.104 126.706 30.288 126.786 30.496C126.818 30.608 126.858 30.704 126.906 30.784C126.954 30.864 126.994 30.952 127.026 31.048L127.17 31.432L132.162 43.72C132.162 43.72 132.186 43.792 132.234 43.936C132.282 44.08 132.322 44.224 132.354 44.368ZM126.666 38.488C126.458 38.024 126.242 37.544 126.018 37.048C125.81 36.552 125.586 36.048 125.346 35.536C125.282 35.392 125.218 35.248 125.154 35.104C125.09 34.944 125.026 34.792 124.962 34.648C124.914 34.792 124.858 34.944 124.794 35.104C124.73 35.248 124.666 35.392 124.602 35.536C124.362 36.048 124.13 36.552 123.906 37.048C123.698 37.544 123.49 38.024 123.282 38.488L122.85 39.544H127.098L126.666 38.488ZM141.047 35.2C141.511 35.392 141.935 35.672 142.319 36.04C142.703 36.392 143.031 36.8 143.303 37.264C143.591 37.728 143.807 38.232 143.951 38.776C144.111 39.304 144.191 39.84 144.191 40.384C144.207 41.2 144.015 41.968 143.615 42.688C143.231 43.408 142.599 43.96 141.719 44.344C141.047 44.616 140.351 44.824 139.631 44.968C138.927 45.096 138.191 45.184 137.423 45.232V49.624C137.423 49.72 137.407 49.808 137.375 49.888C137.359 49.968 137.351 50.048 137.351 50.128C137.319 50.288 137.279 50.432 137.231 50.56C137.199 50.688 137.151 50.824 137.087 50.968C137.023 51.064 136.959 51.152 136.895 51.232C136.831 51.312 136.759 51.392 136.679 51.472C136.295 51.664 135.895 51.704 135.479 51.592C135.223 51.576 135.015 51.496 134.855 51.352C134.711 51.208 134.607 51.056 134.543 50.896C134.479 50.736 134.423 50.552 134.375 50.344C134.359 50.264 134.343 50.184 134.327 50.104C134.327 50.04 134.327 49.968 134.327 49.888V36.52C134.327 36.424 134.327 36.328 134.327 36.232C134.343 36.12 134.359 36.008 134.375 35.896C134.391 35.704 134.439 35.512 134.519 35.32C134.663 34.92 134.959 34.648 135.407 34.504C135.855 34.36 136.359 34.296 136.919 34.312C137.303 34.328 137.695 34.368 138.095 34.432C138.511 34.496 138.903 34.576 139.271 34.672C139.655 34.752 139.999 34.84 140.303 34.936C140.607 35.032 140.855 35.12 141.047 35.2ZM141.095 40.384C141.159 39.936 141.103 39.56 140.927 39.256C140.767 38.936 140.535 38.68 140.231 38.488C139.927 38.28 139.575 38.12 139.175 38.008C138.791 37.896 138.407 37.816 138.023 37.768C137.975 37.752 137.895 37.744 137.783 37.744C137.687 37.744 137.575 37.744 137.447 37.744C137.447 38.256 137.447 38.752 137.447 39.232C137.463 39.696 137.463 40.2 137.447 40.744V42.352C137.815 42.336 138.199 42.296 138.599 42.232C139.015 42.168 139.399 42.064 139.751 41.92C140.103 41.776 140.399 41.584 140.639 41.344C140.895 41.104 141.047 40.784 141.095 40.384ZM152.86 35.2C153.324 35.392 153.748 35.672 154.132 36.04C154.516 36.392 154.844 36.8 155.116 37.264C155.404 37.728 155.62 38.232 155.764 38.776C155.924 39.304 156.004 39.84 156.004 40.384C156.02 41.2 155.828 41.968 155.428 42.688C155.044 43.408 154.412 43.96 153.532 44.344C152.86 44.616 152.164 44.824 151.444 44.968C150.74 45.096 150.004 45.184 149.236 45.232V49.624C149.236 49.72 149.22 49.808 149.188 49.888C149.172 49.968 149.164 50.048 149.164 50.128C149.132 50.288 149.092 50.432 149.044 50.56C149.012 50.688 148.964 50.824 148.9 50.968C148.836 51.064 148.772 51.152 148.708 51.232C148.644 51.312 148.572 51.392 148.492 51.472C148.108 51.664 147.708 51.704 147.292 51.592C147.036 51.576 146.828 51.496 146.668 51.352C146.524 51.208 146.42 51.056 146.356 50.896C146.292 50.736 146.236 50.552 146.188 50.344C146.172 50.264 146.156 50.184 146.14 50.104C146.14 50.04 146.14 49.968 146.14 49.888V36.52C146.14 36.424 146.14 36.328 146.14 36.232C146.156 36.12 146.172 36.008 146.188 35.896C146.204 35.704 146.252 35.512 146.332 35.32C146.476 34.92 146.772 34.648 147.22 34.504C147.668 34.36 148.172 34.296 148.732 34.312C149.116 34.328 149.508 34.368 149.908 34.432C150.324 34.496 150.716 34.576 151.084 34.672C151.468 34.752 151.812 34.84 152.116 34.936C152.42 35.032 152.668 35.12 152.86 35.2ZM152.908 40.384C152.972 39.936 152.916 39.56 152.74 39.256C152.58 38.936 152.348 38.68 152.044 38.488C151.74 38.28 151.388 38.12 150.988 38.008C150.604 37.896 150.22 37.816 149.836 37.768C149.788 37.752 149.708 37.744 149.596 37.744C149.5 37.744 149.388 37.744 149.26 37.744C149.26 38.256 149.26 38.752 149.26 39.232C149.276 39.696 149.276 40.2 149.26 40.744V42.352C149.628 42.336 150.012 42.296 150.412 42.232C150.828 42.168 151.212 42.064 151.564 41.92C151.916 41.776 152.212 41.584 152.452 41.344C152.708 41.104 152.86 40.784 152.908 40.384ZM161.144 44.08C161.128 44.16 161.112 44.24 161.096 44.32C161.096 44.384 161.096 44.456 161.096 44.536L160.952 45.04C160.92 45.104 160.896 45.144 160.88 45.16L160.808 45.304C160.728 45.48 160.584 45.624 160.376 45.736C159.992 45.928 159.584 45.976 159.152 45.88C158.88 45.848 158.664 45.768 158.504 45.64C158.344 45.528 158.232 45.392 158.168 45.232C158.104 45.072 158.056 44.912 158.024 44.752C157.976 44.592 157.952 44.448 157.952 44.32V30.88C157.952 30.768 157.952 30.672 157.952 30.592C157.968 30.496 157.984 30.408 158 30.328C158.016 30.216 158.032 30.12 158.048 30.04C158.08 29.96 158.112 29.872 158.144 29.776C158.192 29.616 158.28 29.488 158.408 29.392C158.6 29.248 158.784 29.168 158.96 29.152C159.072 29.12 159.176 29.104 159.272 29.104C159.368 29.088 159.48 29.08 159.608 29.08C159.832 29.08 160.088 29.144 160.376 29.272C160.6 29.4 160.76 29.576 160.856 29.8C161.016 30.12 161.096 30.416 161.096 30.688C161.112 30.848 161.12 31.088 161.12 31.408C161.136 31.728 161.144 31.968 161.144 32.128V32.224C161.176 32.736 161.192 33.232 161.192 33.712C161.192 34.176 161.184 34.688 161.168 35.248C161.168 35.792 161.16 36.32 161.144 36.832C161.144 37.328 161.144 37.824 161.144 38.32V43.36C161.144 43.424 161.144 43.488 161.144 43.552C161.16 43.6 161.168 43.656 161.168 43.72C161.168 43.88 161.16 44 161.144 44.08ZM166.132 36.904C166.132 37.352 166.132 37.856 166.132 38.416C166.148 38.976 166.156 39.56 166.156 40.168C166.156 40.76 166.156 41.352 166.156 41.944C166.156 42.52 166.148 43.056 166.132 43.552C166.116 43.792 166.092 44.056 166.06 44.344C166.028 44.616 165.964 44.872 165.868 45.112C165.772 45.352 165.62 45.552 165.412 45.712C165.22 45.856 164.956 45.92 164.62 45.904C164.124 45.872 163.764 45.656 163.54 45.256C163.332 44.856 163.212 44.296 163.18 43.576C163.18 43.208 163.172 42.784 163.156 42.304C163.156 41.824 163.148 41.336 163.132 40.84C163.132 40.344 163.132 39.864 163.132 39.4C163.132 38.92 163.132 38.488 163.132 38.104C163.132 37.88 163.124 37.608 163.108 37.288C163.108 36.968 163.116 36.64 163.132 36.304C163.148 35.968 163.188 35.648 163.252 35.344C163.316 35.024 163.42 34.76 163.564 34.552C163.676 34.424 163.836 34.328 164.044 34.264C164.252 34.184 164.468 34.144 164.692 34.144C164.932 34.144 165.156 34.184 165.364 34.264C165.588 34.344 165.748 34.456 165.844 34.6C165.908 34.696 165.956 34.832 165.988 35.008C166.02 35.184 166.044 35.384 166.06 35.608C166.092 35.816 166.108 36.04 166.108 36.28C166.124 36.504 166.132 36.712 166.132 36.904ZM165.22 32.056C164.724 32.184 164.308 32.136 163.972 31.912C163.652 31.672 163.452 31.32 163.372 30.856C163.308 30.52 163.332 30.224 163.444 29.968C163.556 29.712 163.724 29.52 163.948 29.392C164.172 29.248 164.428 29.184 164.716 29.2C165.004 29.216 165.292 29.328 165.58 29.536C165.852 29.728 166.044 29.952 166.156 30.208C166.284 30.464 166.324 30.712 166.276 30.952C166.244 31.192 166.14 31.416 165.964 31.624C165.788 31.816 165.54 31.96 165.22 32.056ZM177.169 36.76C177.297 36.984 177.361 37.224 177.361 37.48C177.377 37.736 177.321 37.976 177.193 38.2C177.049 38.488 176.841 38.688 176.569 38.8C176.313 38.896 176.025 38.904 175.705 38.824C175.561 38.792 175.433 38.736 175.321 38.656C175.209 38.576 175.089 38.496 174.961 38.416C174.849 38.32 174.713 38.232 174.553 38.152C174.409 38.072 174.217 38.016 173.977 37.984C173.737 37.952 173.473 37.952 173.185 37.984C172.913 38.016 172.665 38.08 172.441 38.176C172.089 38.352 171.809 38.624 171.601 38.992C171.393 39.344 171.257 39.728 171.193 40.144C171.129 40.544 171.137 40.952 171.217 41.368C171.313 41.784 171.489 42.136 171.745 42.424C171.937 42.648 172.185 42.832 172.489 42.976C172.809 43.12 173.113 43.208 173.401 43.24C173.673 43.272 173.945 43.272 174.217 43.24C174.489 43.192 174.753 43.128 175.009 43.048C175.201 42.968 175.417 42.864 175.657 42.736C175.897 42.592 176.129 42.504 176.353 42.472C176.641 42.472 176.865 42.552 177.025 42.712C177.185 42.856 177.297 43.04 177.361 43.264C177.425 43.472 177.433 43.696 177.385 43.936C177.353 44.176 177.265 44.384 177.121 44.56C176.929 44.8 176.657 45.032 176.305 45.256C175.953 45.464 175.617 45.616 175.297 45.712C174.913 45.84 174.481 45.912 174.001 45.928C173.537 45.944 173.097 45.928 172.681 45.88C172.489 45.848 172.289 45.808 172.081 45.76C171.873 45.712 171.673 45.656 171.481 45.592C170.777 45.336 170.185 44.976 169.705 44.512C169.241 44.032 168.881 43.496 168.625 42.904C168.385 42.312 168.249 41.68 168.217 41.008C168.185 40.336 168.265 39.672 168.457 39.016C168.633 38.392 168.849 37.864 169.105 37.432C169.377 37 169.689 36.648 170.041 36.376C170.409 36.088 170.817 35.864 171.265 35.704C171.713 35.528 172.209 35.376 172.753 35.248C173.313 35.136 173.905 35.136 174.529 35.248C175.153 35.36 175.713 35.568 176.209 35.872C176.593 36.08 176.913 36.376 177.169 36.76ZM182.135 35.896C182.615 35.656 183.119 35.488 183.647 35.392C184.175 35.28 184.695 35.256 185.207 35.32C185.735 35.368 186.239 35.504 186.719 35.728C187.199 35.936 187.647 36.24 188.063 36.64C188.479 37.056 188.799 37.512 189.023 38.008C189.247 38.504 189.407 39.056 189.503 39.664C189.567 40.08 189.671 40.464 189.815 40.816C189.959 41.168 190.111 41.52 190.271 41.872C190.447 42.224 190.607 42.576 190.751 42.928C190.911 43.28 191.039 43.648 191.135 44.032C191.215 44.4 191.183 44.76 191.039 45.112C190.911 45.448 190.639 45.656 190.223 45.736C189.983 45.784 189.751 45.768 189.527 45.688C189.319 45.592 189.127 45.464 188.951 45.304C188.775 45.128 188.615 44.944 188.471 44.752C188.343 44.544 188.223 44.352 188.111 44.176C187.743 44.656 187.343 45.032 186.911 45.304C186.479 45.56 185.959 45.728 185.351 45.808C184.839 45.872 184.351 45.888 183.887 45.856C183.423 45.824 182.927 45.736 182.399 45.592C181.711 45.416 181.143 45.112 180.695 44.68C180.263 44.232 179.927 43.72 179.687 43.144C179.463 42.552 179.343 41.92 179.327 41.248C179.311 40.576 179.391 39.912 179.567 39.256C179.791 38.392 180.127 37.688 180.575 37.144C181.023 36.6 181.543 36.184 182.135 35.896ZM182.735 38.704C182.511 38.928 182.335 39.192 182.207 39.496C182.079 39.8 181.999 40.12 181.967 40.456C181.951 40.792 181.983 41.128 182.063 41.464C182.143 41.8 182.271 42.096 182.447 42.352C182.607 42.576 182.879 42.768 183.263 42.928C183.647 43.072 184.047 43.16 184.463 43.192C184.943 43.224 185.359 43.096 185.711 42.808C186.079 42.52 186.351 42.16 186.527 41.728C186.719 41.28 186.807 40.808 186.791 40.312C186.775 39.8 186.639 39.336 186.383 38.92C186.191 38.616 185.935 38.392 185.615 38.248C185.311 38.104 184.983 38.032 184.631 38.032C184.279 38.016 183.927 38.072 183.575 38.2C183.239 38.312 182.959 38.48 182.735 38.704ZM200.544 35.416C200.672 35.72 200.68 36.056 200.568 36.424C200.472 36.792 200.288 37.032 200.016 37.144C199.872 37.208 199.68 37.264 199.44 37.312C199.2 37.344 198.936 37.376 198.648 37.408C198.376 37.44 198.104 37.464 197.832 37.48C197.56 37.496 197.328 37.504 197.136 37.504C197.152 37.984 197.168 38.48 197.184 38.992C197.2 39.488 197.216 39.976 197.232 40.456C197.248 40.936 197.256 41.4 197.256 41.848C197.256 42.28 197.248 42.672 197.232 43.024C197.232 43.264 197.232 43.544 197.232 43.864C197.232 44.168 197.208 44.464 197.16 44.752C197.128 45.04 197.072 45.296 196.992 45.52C196.912 45.728 196.792 45.864 196.632 45.928C196.136 46.136 195.68 46.192 195.264 46.096C194.864 46.016 194.576 45.848 194.4 45.592C194.272 45.384 194.176 45.144 194.112 44.872C194.048 44.584 194 44.296 193.968 44.008C193.952 43.704 193.944 43.416 193.944 43.144C193.96 42.856 193.968 42.608 193.968 42.4C193.984 41.728 193.992 40.968 193.992 40.12C194.008 39.256 194.016 38.392 194.016 37.528H193.656C193.464 37.528 193.216 37.528 192.912 37.528C192.624 37.512 192.328 37.488 192.024 37.456C191.736 37.408 191.464 37.352 191.208 37.288C190.952 37.208 190.768 37.096 190.656 36.952C190.48 36.744 190.368 36.52 190.32 36.28C190.288 36.04 190.304 35.816 190.368 35.608C190.448 35.384 190.568 35.192 190.728 35.032C190.888 34.856 191.072 34.744 191.28 34.696C191.568 34.616 191.976 34.576 192.504 34.576C193.032 34.56 193.528 34.56 193.992 34.576C193.976 34.416 193.968 34.264 193.968 34.12C193.968 33.96 193.96 33.808 193.944 33.664C193.928 33.472 193.92 33.232 193.92 32.944C193.92 32.64 193.936 32.344 193.968 32.056C194.016 31.752 194.088 31.472 194.184 31.216C194.28 30.944 194.416 30.736 194.592 30.592C194.832 30.4 195.072 30.296 195.312 30.28C195.568 30.248 195.8 30.28 196.008 30.376C196.232 30.472 196.416 30.616 196.56 30.808C196.72 30.984 196.832 31.184 196.896 31.408C196.944 31.6 196.984 31.832 197.016 32.104C197.048 32.36 197.064 32.632 197.064 32.92C197.08 33.208 197.088 33.496 197.088 33.784C197.088 34.072 197.088 34.336 197.088 34.576H197.328C197.568 34.576 197.848 34.568 198.168 34.552C198.488 34.536 198.8 34.544 199.104 34.576C199.424 34.608 199.712 34.688 199.968 34.816C200.224 34.928 200.416 35.128 200.544 35.416ZM205.601 36.904C205.601 37.352 205.601 37.856 205.601 38.416C205.617 38.976 205.625 39.56 205.625 40.168C205.625 40.76 205.625 41.352 205.625 41.944C205.625 42.52 205.617 43.056 205.601 43.552C205.585 43.792 205.561 44.056 205.529 44.344C205.497 44.616 205.433 44.872 205.337 45.112C205.241 45.352 205.089 45.552 204.881 45.712C204.689 45.856 204.425 45.92 204.089 45.904C203.593 45.872 203.233 45.656 203.009 45.256C202.801 44.856 202.681 44.296 202.649 43.576C202.649 43.208 202.641 42.784 202.625 42.304C202.625 41.824 202.617 41.336 202.601 40.84C202.601 40.344 202.601 39.864 202.601 39.4C202.601 38.92 202.601 38.488 202.601 38.104C202.601 37.88 202.593 37.608 202.577 37.288C202.577 36.968 202.585 36.64 202.601 36.304C202.617 35.968 202.657 35.648 202.721 35.344C202.785 35.024 202.889 34.76 203.033 34.552C203.145 34.424 203.305 34.328 203.513 34.264C203.721 34.184 203.937 34.144 204.161 34.144C204.401 34.144 204.625 34.184 204.833 34.264C205.057 34.344 205.217 34.456 205.313 34.6C205.377 34.696 205.425 34.832 205.457 35.008C205.489 35.184 205.513 35.384 205.529 35.608C205.561 35.816 205.577 36.04 205.577 36.28C205.593 36.504 205.601 36.712 205.601 36.904ZM204.689 32.056C204.193 32.184 203.777 32.136 203.441 31.912C203.121 31.672 202.921 31.32 202.841 30.856C202.777 30.52 202.801 30.224 202.913 29.968C203.025 29.712 203.193 29.52 203.417 29.392C203.641 29.248 203.897 29.184 204.185 29.2C204.473 29.216 204.761 29.328 205.049 29.536C205.321 29.728 205.513 29.952 205.625 30.208C205.753 30.464 205.793 30.712 205.745 30.952C205.713 31.192 205.609 31.416 205.433 31.624C205.257 31.816 205.009 31.96 204.689 32.056ZM210.806 35.152C211.334 34.896 211.886 34.712 212.462 34.6C213.038 34.488 213.606 34.464 214.166 34.528C214.742 34.592 215.294 34.744 215.822 34.984C216.366 35.224 216.862 35.56 217.31 35.992C217.678 36.36 217.998 36.808 218.27 37.336C218.542 37.848 218.742 38.352 218.87 38.848C219.142 39.728 219.182 40.616 218.99 41.512C218.798 42.408 218.47 43.24 218.006 44.008C217.782 44.36 217.502 44.68 217.166 44.968C216.846 45.24 216.502 45.464 216.134 45.64C215.654 45.864 215.134 46.016 214.574 46.096C214.014 46.192 213.47 46.216 212.942 46.168C211.982 46.12 211.134 45.88 210.398 45.448C209.678 45.016 209.094 44.464 208.646 43.792C208.214 43.12 207.926 42.36 207.782 41.512C207.654 40.648 207.71 39.768 207.95 38.872C208.206 37.912 208.574 37.136 209.054 36.544C209.55 35.936 210.134 35.472 210.806 35.152ZM211.526 38.368C211.286 38.592 211.102 38.872 210.974 39.208C210.846 39.544 210.766 39.896 210.734 40.264C210.702 40.616 210.726 40.976 210.806 41.344C210.902 41.696 211.046 42.016 211.238 42.304C211.398 42.544 211.686 42.744 212.102 42.904C212.518 43.064 212.95 43.16 213.398 43.192C213.91 43.224 214.358 43.088 214.742 42.784C215.126 42.464 215.414 42.072 215.606 41.608C215.814 41.144 215.91 40.64 215.894 40.096C215.878 39.552 215.734 39.056 215.462 38.608C215.27 38.288 214.998 38.056 214.646 37.912C214.31 37.752 213.95 37.672 213.566 37.672C213.198 37.656 212.83 37.712 212.462 37.84C212.094 37.952 211.782 38.128 211.526 38.368ZM221.047 37.432C221.047 37.064 221.039 36.672 221.023 36.256C221.023 35.84 221.095 35.464 221.239 35.128C221.367 34.824 221.575 34.608 221.863 34.48C222.167 34.336 222.463 34.304 222.751 34.384C223.039 34.432 223.263 34.52 223.423 34.648C223.583 34.776 223.695 34.928 223.759 35.104C223.839 35.264 223.887 35.456 223.903 35.68C223.919 35.888 223.935 36.096 223.951 36.304C224.111 36.016 224.311 35.784 224.551 35.608C224.791 35.432 225.039 35.288 225.295 35.176C225.551 35.064 225.791 34.984 226.015 34.936C226.255 34.888 226.439 34.864 226.567 34.864C227.175 34.864 227.775 35 228.367 35.272C228.975 35.528 229.479 35.896 229.879 36.376C230.103 36.664 230.271 36.968 230.383 37.288C230.511 37.592 230.599 37.912 230.647 38.248C230.711 38.584 230.751 38.928 230.767 39.28C230.783 39.616 230.799 39.96 230.815 40.312C230.895 41.336 230.895 42.352 230.815 43.36C230.799 43.568 230.791 43.808 230.791 44.08C230.791 44.352 230.767 44.624 230.719 44.896C230.687 45.152 230.615 45.384 230.503 45.592C230.407 45.784 230.239 45.904 229.999 45.952C229.663 46.032 229.383 46.048 229.159 46C228.951 45.968 228.783 45.896 228.655 45.784C228.527 45.672 228.431 45.528 228.367 45.352C228.303 45.176 228.247 44.976 228.199 44.752C228.167 44.576 228.135 44.376 228.103 44.152C228.087 43.912 228.071 43.672 228.055 43.432C228.055 43.192 228.047 42.96 228.031 42.736C228.031 42.496 228.031 42.28 228.031 42.088C228.031 41.784 228.023 41.448 228.007 41.08C227.991 40.712 227.991 40.368 228.007 40.048C228.007 39.296 227.807 38.728 227.407 38.344C227.023 37.944 226.495 37.776 225.823 37.84C225.311 37.904 224.863 38.112 224.479 38.464C224.095 38.8 223.911 39.24 223.927 39.784C223.927 39.992 223.927 40.184 223.927 40.36C223.927 40.536 223.919 40.712 223.903 40.888C223.903 41.064 223.903 41.256 223.903 41.464C223.903 41.672 223.903 41.904 223.903 42.16C223.903 42.688 223.903 43.248 223.903 43.84C223.903 44.416 223.831 44.888 223.687 45.256C223.559 45.64 223.343 45.904 223.039 46.048C222.735 46.192 222.375 46.152 221.959 45.928C221.783 45.832 221.639 45.704 221.527 45.544C221.431 45.368 221.351 45.184 221.287 44.992C221.239 44.8 221.207 44.608 221.191 44.416C221.175 44.208 221.159 44.016 221.143 43.84C221.095 43.312 221.063 42.824 221.047 42.376C221.047 41.912 221.047 41.416 221.047 40.888V37.432Z" fill="white"/>
<path d="M258.546 35.9541C258.651 36.0586 258.734 36.1828 258.791 36.3195C258.848 36.4563 258.877 36.6029 258.877 36.7509C258.877 36.899 258.848 37.0456 258.791 37.1824C258.734 37.3191 258.651 37.4433 258.546 37.5478L253.296 42.7978C253.191 42.9027 253.067 42.9859 252.93 43.0427C252.794 43.0995 252.647 43.1287 252.499 43.1287C252.351 43.1287 252.204 43.0995 252.068 43.0427C251.931 42.9859 251.807 42.9027 251.702 42.7978L249.452 40.5478C249.348 40.4432 249.265 40.3189 249.208 40.1822C249.151 40.0455 249.122 39.8989 249.122 39.7509C249.122 39.6029 249.151 39.4564 249.208 39.3197C249.265 39.1829 249.348 39.0587 249.452 38.9541C249.557 38.8494 249.681 38.7664 249.818 38.7098C249.955 38.6531 250.101 38.624 250.249 38.624C250.397 38.624 250.544 38.6531 250.68 38.7098C250.817 38.7664 250.941 38.8494 251.046 38.9541L252.5 40.4062L256.954 35.9513C257.059 35.8468 257.183 35.7641 257.32 35.7077C257.456 35.6513 257.603 35.6224 257.751 35.6227C257.898 35.623 258.045 35.6524 258.181 35.7092C258.318 35.7661 258.442 35.8493 258.546 35.9541ZM264.125 39C264.125 41.0025 263.531 42.9601 262.419 44.6251C261.306 46.2902 259.725 47.5879 257.875 48.3543C256.025 49.1206 253.989 49.3211 252.025 48.9305C250.061 48.5398 248.257 47.5755 246.841 46.1595C245.425 44.7435 244.46 42.9393 244.07 40.9753C243.679 39.0112 243.879 36.9754 244.646 35.1253C245.412 33.2752 246.71 31.6939 248.375 30.5814C250.04 29.4688 251.997 28.875 254 28.875C256.684 28.878 259.258 29.9457 261.156 31.8438C263.054 33.742 264.122 36.3156 264.125 39ZM261.875 39C261.875 37.4425 261.413 35.9199 260.548 34.6249C259.683 33.3298 258.453 32.3205 257.014 31.7244C255.575 31.1284 253.991 30.9725 252.464 31.2763C250.936 31.5802 249.533 32.3302 248.432 33.4315C247.33 34.5329 246.58 35.9361 246.276 37.4637C245.972 38.9913 246.128 40.5747 246.724 42.0136C247.32 43.4526 248.33 44.6825 249.625 45.5478C250.92 46.4131 252.442 46.875 254 46.875C256.088 46.8728 258.09 46.0424 259.566 44.566C261.042 43.0896 261.873 41.0879 261.875 39Z" fill="#56DE2D"/>
</g>
<defs>
<filter id="filter0_d_1101_276" x="0" y="0" width="305" height="86" filterUnits="userSpaceOnUse" color-interpolation-filters="sRGB">
<feFlood flood-opacity="0" result="BackgroundImageFix"/>
<feColorMatrix in="SourceAlpha" type="matrix" values="0 0 0 0 0 0 0 0 0 0 0 0 0 0 0 0 0 0 127 0" result="hardAlpha"/>
<feOffset dy="4"/>
<feGaussianBlur stdDeviation="7.5"/>
<feComposite in2="hardAlpha" operator="out"/>
<feColorMatrix type="matrix" values="0 0 0 0 0 0 0 0 0 0 0 0 0 0 0 0 0 0 0.25 0"/>
<feBlend mode="normal" in2="BackgroundImageFix" result="effect1_dropShadow_1101_276"/>
<feBlend mode="normal" in="SourceGraphic" in2="effect1_dropShadow_1101_276" result="shape"/>
</filter>
<linearGradient id="paint0_linear_1101_276" x1="152.5" y1="11" x2="152.5" y2="67" gradientUnits="userSpaceOnUse">
<stop stop-opacity="0"/>
<stop offset="1"/>
</linearGradient>
</defs>
</svg>
