<svg width="18" height="18" viewBox="0 0 18 18" fill="none" xmlns="http://www.w3.org/2000/svg">
<path d="M15.1875 2.53125H2.8125C2.43954 2.53125 2.08185 2.67941 1.81813 2.94313C1.55441 3.20685 1.40625 3.56454 1.40625 3.9375V14.0625C1.40625 14.4355 1.55441 14.7931 1.81813 15.0569C2.08185 15.3206 2.43954 15.4688 2.8125 15.4688H15.1875C15.5605 15.4688 15.9181 15.3206 16.1819 15.0569C16.4456 14.7931 16.5938 14.4355 16.5938 14.0625V3.9375C16.5938 3.56454 16.4456 3.20685 16.1819 2.94313C15.9181 2.67941 15.5605 2.53125 15.1875 2.53125ZM14.9062 13.7812H3.09375V4.21875H14.9062V13.7812ZM4.78125 6.46875C4.78125 6.24497 4.87014 6.03036 5.02838 5.87213C5.18661 5.71389 5.40122 5.625 5.625 5.625H12.375C12.5988 5.625 12.8134 5.71389 12.9716 5.87213C13.1299 6.03036 13.2188 6.24497 13.2188 6.46875C13.2188 6.69253 13.1299 6.90714 12.9716 7.06537C12.8134 7.22361 12.5988 7.3125 12.375 7.3125H5.625C5.40122 7.3125 5.18661 7.22361 5.02838 7.06537C4.87014 6.90714 4.78125 6.69253 4.78125 6.46875ZM4.78125 9C4.78125 8.77622 4.87014 8.56161 5.02838 8.40338C5.18661 8.24514 5.40122 8.15625 5.625 8.15625H12.375C12.5988 8.15625 12.8134 8.24514 12.9716 8.40338C13.1299 8.56161 13.2188 8.77622 13.2188 9C13.2188 9.22378 13.1299 9.43839 12.9716 9.59662C12.8134 9.75485 12.5988 9.84375 12.375 9.84375H5.625C5.40122 9.84375 5.18661 9.75485 5.02838 9.59662C4.87014 9.43839 4.78125 9.22378 4.78125 9ZM4.78125 11.5312C4.78125 11.3075 4.87014 11.0929 5.02838 10.9346C5.18661 10.7764 5.40122 10.6875 5.625 10.6875H12.375C12.5988 10.6875 12.8134 10.7764 12.9716 10.9346C13.1299 11.0929 13.2188 11.3075 13.2188 11.5312C13.2188 11.755 13.1299 11.9696 12.9716 12.1279C12.8134 12.2861 12.5988 12.375 12.375 12.375H5.625C5.40122 12.375 5.18661 12.2861 5.02838 12.1279C4.87014 11.9696 4.78125 11.755 4.78125 11.5312Z" fill="#FFEFDA"/>
</svg>
