<svg width="18" height="18" viewBox="0 0 18 18" fill="none" xmlns="http://www.w3.org/2000/svg">
<path d="M16.3469 5.65948L7.34692 14.6595C7.26854 14.7381 7.17539 14.8006 7.07283 14.8431C6.97027 14.8857 6.86032 14.9076 6.74927 14.9076C6.63822 14.9076 6.52826 14.8857 6.4257 14.8431C6.32314 14.8006 6.23 14.7381 6.15161 14.6595L2.21411 10.722C2.13562 10.6435 2.07337 10.5503 2.03089 10.4478C1.98841 10.3452 1.96655 10.2353 1.96655 10.1243C1.96655 10.0133 1.98841 9.90342 2.03089 9.80088C2.07337 9.69833 2.13562 9.60515 2.21411 9.52667C2.2926 9.44818 2.38577 9.38593 2.48832 9.34345C2.59086 9.30097 2.70077 9.27911 2.81177 9.27911C2.92276 9.27911 3.03267 9.30097 3.13522 9.34345C3.23776 9.38593 3.33094 9.44818 3.40942 9.52667L6.74997 12.8672L15.153 4.46557C15.3115 4.30707 15.5265 4.21802 15.7507 4.21802C15.9748 4.21802 16.1898 4.30707 16.3483 4.46557C16.5068 4.62408 16.5959 4.83907 16.5959 5.06323C16.5959 5.2874 16.5068 5.50238 16.3483 5.66089L16.3469 5.65948Z" fill="#FFEFDA"/>
</svg>
