<svg width="16" height="23" viewBox="0 0 16 23" fill="none" xmlns="http://www.w3.org/2000/svg">
<path d="M6.66811 22.3652C-0.024373 22.2083 -0.35002 15.961 0.164287 13.7991C0.164287 13.7991 2.07572 16.698 5.22833 18.4636C8.38095 20.2291 6.66811 22.3652 6.66811 22.3652Z" fill="#FFEFDA"/>
<path d="M0.450088 12.7899C0.388899 11.982 2.09879 8.57397 2.43873 8.14221C2.43873 13.1038 8.7361 15.7602 8.7361 15.7602C8.7361 15.7602 10.0046 15.0653 10.2746 13.7335C10.2746 13.7335 10.7684 14.2712 11.0381 14.6552C11.3365 15.08 11.6579 15.6426 11.6579 15.6426C11.3234 16.0114 11.0475 16.3125 10.9705 16.388C11.7791 16.704 12.4404 17.0864 12.5876 18.035C12.6365 18.3503 12.684 18.7283 12.5876 19.1871C11.7407 23.2178 7.88918 22.303 7.93919 22.2596C8.55898 21.7219 9.00453 20.7217 7.53782 19.0906C7.53782 19.0906 6.88321 18.3162 4.93728 17.2685C3.57249 16.5336 0.526575 13.7998 0.450088 12.7899Z" fill="#FFEFDA"/>
<path d="M11.2747 8.87761C18.215 15.8818 14.7023 19.8203 10.8277 21.9492C14.4535 18.7082 10.9325 13.7524 6.18312 10.2267C2.38362 7.40613 5.50221 2.05118 7.68964 0C6.54571 2.48769 8.9755 7.02544 11.2747 8.87761Z" fill="#FFEFDA"/>
<path d="M8.84099 15.8168C3.69563 12.99 2.95904 11.2689 2.41757 8.15017C1.43025 9.82413 0.892141 10.773 0.449097 12.8123C1.03095 14.252 1.90648 15.2079 4.90405 17.3018C8.28098 19.2368 9.07491 20.3322 8.01216 22.3093C11.4018 22.6891 13.9563 20.4436 15.0227 17.5436C16.0891 14.6435 13.3739 10.7719 10.3605 8.15017C7.32424 3.75464 6.95667 2.11847 7.70135 0.0690918C4.29049 3.87802 3.52727 7.62643 5.07672 9.18621C6.62618 10.746 8.66882 12.2354 10.1533 14.0901C9.8965 14.7292 9.63122 15.1042 8.84099 15.8168Z" fill="#FFEFDA"/>
<path d="M10.9472 16.4039L11.4653 15.8513L11.8451 16.8183L10.9472 16.4039Z" fill="#FFEFDA"/>
<path d="M4.86916 18.1997C2.72384 16.997 1.80473 15.8822 0.172461 13.8829C-0.371311 18.4244 0.773522 21.6831 6.59588 22.3438C7.56259 20.5943 7.29541 19.6781 4.86916 18.1997Z" fill="#FFEFDA"/>
</svg>
