<svg preserveAspectRatio="none" width="100%" height="100%" overflow="visible" style="display: block;" viewBox="0 0 15.259 22.3784" fill="none" xmlns="http://www.w3.org/2000/svg">
<g id="LOGO">
<path id="Vector 1" d="M6.66811 22.3652C-0.0243731 22.2083 -0.35002 15.961 0.164287 13.7991C0.164287 13.7991 2.07572 16.698 5.22833 18.4636C8.38095 20.2291 6.66811 22.3652 6.66811 22.3652Z" fill="var(--fill-0, #956AEC)"/>
<path id="Vector 2" d="M0.450119 12.7899C0.38893 11.982 2.09882 8.57396 2.43876 8.1422C2.43876 13.1037 8.73613 15.7601 8.73613 15.7601C8.73613 15.7601 10.0047 15.0653 10.2746 13.7335C10.2746 13.7335 10.7684 14.2712 11.0382 14.6552C11.3365 15.08 11.6579 15.6426 11.6579 15.6426C11.3234 16.0114 11.0475 16.3124 10.9705 16.388C11.7791 16.704 12.4405 17.0863 12.5876 18.035C12.6365 18.3503 12.684 18.7282 12.5876 19.1871C11.7407 23.2177 7.88921 22.303 7.93922 22.2596C8.55901 21.7219 9.00457 20.7217 7.53785 19.0906C7.53785 19.0906 6.88324 18.3162 4.93731 17.2685C3.57252 16.5336 0.526605 13.7998 0.450119 12.7899Z" fill="var(--fill-0, #956AEC)"/>
<path id="Vector 3" d="M11.2748 8.87761C18.2151 15.8818 14.7023 19.8203 10.8277 21.9492C14.4536 18.7082 10.9325 13.7524 6.18316 10.2267C2.38367 7.40613 5.50225 2.05118 7.68969 2.062e-07C6.54575 2.48769 8.97554 7.02545 11.2748 8.87761Z" fill="var(--fill-0, #956AEC)"/>
<g id="Vector 4">
</g>
<g id="Vector 5">
</g>
</g>
</svg>
