<svg width="174" height="145" viewBox="0 0 174 145" fill="none" xmlns="http://www.w3.org/2000/svg">
<path d="M121.506 25.7075C102.61 -2.84078 46.6771 5.63348 46.4077 44.6165C23.9474 24.2248 -9.62839 66.0294 16.6034 86.8633C-4.45373 111.57 35.6719 136.186 53.5318 118.369C77.8296 151.622 134.422 135.655 133.753 100.598C159.682 103.638 180.423 77.5491 156.019 61.5038C176.921 38.1239 144.769 6.64051 121.506 25.7075Z" fill="#4894FF"/>
<circle cx="13.5512" cy="13.5512" r="13.5512" transform="matrix(-0.993131 0.117006 0.117006 0.993131 120.82 50.764)" fill="white"/>
<circle cx="14.1141" cy="14.1141" r="14.1141" transform="matrix(-0.993131 0.117006 0.117006 0.993131 83.9031 57.5761)" fill="white"/>
<path d="M98.0405 69.913C98.6152 74.7907 103.035 78.279 107.913 77.7044C112.791 77.1297 116.279 72.7096 115.704 67.8319C115.13 62.9542 110.71 59.4659 105.832 60.0405C100.954 60.6152 97.4659 65.0353 98.0405 69.913Z" fill="#0046A8"/>
<circle cx="8.87173" cy="8.87173" r="8.87173" transform="matrix(-0.993131 0.117006 0.117006 0.993131 78.6216 67)" fill="#0046A8"/>
</svg>
