<svg width="309" height="309" viewBox="0 0 309 309" fill="none" xmlns="http://www.w3.org/2000/svg">
<path d="M172.67 73.2382C173.984 69.5161 179.557 71.029 178.809 74.9049L172.142 109.44C171.521 112.653 175.563 114.605 177.694 112.122L200.597 85.427C203.167 82.4312 207.817 85.855 205.719 89.1989L187.027 118.994C185.288 121.765 188.352 125.046 191.235 123.5L222.235 106.881C225.714 105.016 228.813 109.889 225.649 112.249L197.455 133.279C194.833 135.235 196.505 139.401 199.752 139.001L234.661 134.703C238.579 134.221 239.709 139.884 235.906 140.942L202.019 150.367C198.867 151.244 198.921 155.732 202.094 156.533L236.199 165.136C240.026 166.101 239.034 171.79 235.105 171.402L200.102 167.95C196.846 167.629 195.275 171.834 197.945 173.726L226.638 194.068C229.859 196.351 226.878 201.297 223.355 199.517L191.963 183.653C189.043 182.177 186.059 185.531 187.864 188.259L207.272 217.593C209.45 220.886 204.885 224.421 202.243 221.488L178.701 195.355C176.511 192.924 172.517 194.974 173.215 198.17L180.715 232.534C181.557 236.391 176.023 238.038 174.619 234.349L162.107 201.477C160.943 198.419 156.479 198.887 155.974 202.12L150.555 236.873C149.947 240.773 144.191 240.31 144.214 236.362L144.422 201.19C144.441 197.918 140.109 196.742 138.471 199.574L120.864 230.023C118.887 233.44 113.688 230.929 115.135 227.257L128.035 194.534C129.235 191.49 125.62 188.829 123.07 190.878L95.6518 212.91C92.5747 215.383 88.6332 211.163 91.3097 208.261L115.159 182.408C117.377 180.003 114.968 176.216 111.85 177.206L78.3244 187.845C74.5619 189.039 72.411 183.68 75.9549 181.942L107.533 166.45C110.47 165.009 109.592 160.607 106.326 160.403L71.2216 158.213C67.2818 157.968 67.212 152.194 71.1446 151.853L106.186 148.814C109.446 148.532 110.217 144.11 107.246 142.74L75.3026 128.017C71.7177 126.364 73.7384 120.955 77.5286 122.058L111.302 131.883C114.443 132.797 116.76 128.952 114.484 126.602L90.0163 101.334C87.2704 98.4977 91.1087 94.1836 94.2447 96.5811L122.188 117.943C124.787 119.93 128.336 117.182 127.063 114.168L113.375 81.7673C111.839 78.131 116.977 75.4949 119.035 78.8632L137.374 108.877C139.08 111.669 143.382 110.388 143.284 107.118L142.225 71.9607C142.107 68.0151 147.85 67.4128 148.552 71.2972L154.811 105.909C155.393 109.129 159.867 109.489 160.957 106.404L172.67 73.2382Z" fill="#FFB44A"/>
<circle cx="139.185" cy="157.779" r="12.928" transform="rotate(15.1893 139.185 157.779)" fill="white"/>
<circle cx="168.008" cy="158.257" r="13.345" transform="rotate(15.1893 168.008 158.257)" fill="white"/>
<circle cx="140.433" cy="161.142" r="8.34065" transform="rotate(15.1893 140.433 161.142)" fill="black"/>
<circle cx="167.134" cy="161.477" r="8.34065" transform="rotate(15.1893 167.134 161.477)" fill="black"/>
</svg>
