<svg width="1280" height="832" viewBox="0 0 1280 832" fill="none" xmlns="http://www.w3.org/2000/svg">
<rect width="1280" height="832" fill="#EDF7FF"/>
<path d="M314.67 125.238C315.984 121.516 321.557 123.029 320.809 126.905L314.142 161.44C313.521 164.653 317.563 166.605 319.694 164.122L342.597 137.427C345.167 134.431 349.817 137.855 347.719 141.199L329.026 170.994C327.288 173.765 330.351 177.046 333.235 175.5L364.235 158.881C367.714 157.016 370.813 161.889 367.649 164.249L339.455 185.279C336.833 187.235 338.505 191.401 341.752 191.001L376.661 186.703C380.579 186.221 381.709 191.884 377.906 192.942L344.019 202.367C340.867 203.244 340.921 207.732 344.094 208.533L378.199 217.136C382.026 218.101 381.034 223.79 377.105 223.402L342.102 219.95C338.846 219.629 337.275 223.834 339.944 225.726L368.638 246.068C371.859 248.351 368.878 253.297 365.355 251.517L333.963 235.653C331.043 234.177 328.059 237.531 329.864 240.259L349.272 269.593C351.45 272.886 346.885 276.421 344.243 273.488L320.701 247.355C318.511 244.924 314.517 246.974 315.215 250.17L322.715 284.534C323.557 288.391 318.023 290.038 316.619 286.349L304.107 253.477C302.943 250.419 298.479 250.887 297.974 254.12L292.555 288.873C291.947 292.773 286.191 292.31 286.214 288.362L286.422 253.19C286.441 249.918 282.109 248.742 280.471 251.574L262.864 282.023C260.887 285.44 255.688 282.929 257.135 279.257L270.035 246.534C271.235 243.49 267.62 240.829 265.07 242.878L237.652 264.91C234.575 267.383 230.633 263.163 233.31 260.261L257.159 234.408C259.377 232.003 256.968 228.216 253.85 229.206L220.324 239.845C216.562 241.039 214.411 235.68 217.955 233.942L249.533 218.45C252.47 217.009 251.592 212.607 248.326 212.403L213.221 210.213C209.282 209.968 209.212 204.194 213.145 203.853L248.186 200.814C251.446 200.532 252.217 196.11 249.246 194.74L217.303 180.017C213.718 178.364 215.738 172.955 219.529 174.058L253.302 183.883C256.443 184.797 258.76 180.952 256.484 178.602L232.016 153.334C229.27 150.498 233.109 146.184 236.245 148.581L264.188 169.943C266.787 171.93 270.336 169.182 269.063 166.168L255.375 133.767C253.839 130.131 258.977 127.495 261.035 130.863L279.374 160.877C281.08 163.669 285.382 162.388 285.284 159.118L284.225 123.961C284.107 120.015 289.85 119.413 290.552 123.297L296.811 157.909C297.393 161.129 301.867 161.489 302.956 158.404L314.67 125.238Z" fill="#FFB44A"/>
<circle cx="281.185" cy="209.779" r="12.928" transform="rotate(15.1893 281.185 209.779)" fill="white"/>
<circle cx="310.008" cy="210.257" r="13.345" transform="rotate(15.1893 310.008 210.257)" fill="white"/>
<circle cx="282.433" cy="213.142" r="8.34065" transform="rotate(15.1893 282.433 213.142)" fill="black"/>
<circle cx="309.134" cy="213.477" r="8.34065" transform="rotate(15.1893 309.134 213.477)" fill="black"/>
<circle cx="917.163" cy="200.164" r="63.5082" transform="rotate(1.51364 917.163 200.164)" fill="#FF585B"/>
<path d="M903.594 198.508C905.075 216.051 921.15 221.013 926.829 202.364" stroke="#A40003" stroke-width="6.43205" stroke-linecap="round"/>
<path d="M886.787 172.134L903.271 186.183L882.438 189.522" stroke="black" stroke-width="5.84732" stroke-linecap="round"/>
<path d="M950.934 181.449L931.245 190.474L950.379 199.364" stroke="black" stroke-width="5.84732" stroke-linecap="round"/>
<path d="M214.506 152.707C195.61 124.159 139.677 132.633 139.408 171.617C116.947 151.225 83.3716 193.029 109.603 213.863C88.5463 238.57 128.672 263.186 146.532 245.369C170.83 278.622 227.422 262.655 226.753 227.598C252.682 230.638 273.423 204.549 249.019 188.504C269.921 165.124 237.769 133.641 214.506 152.707Z" fill="#4894FF"/>
<circle cx="13.5512" cy="13.5512" r="13.5512" transform="matrix(-0.993131 0.117006 0.117006 0.993131 213.82 177.764)" fill="white"/>
<circle cx="14.1141" cy="14.1141" r="14.1141" transform="matrix(-0.993131 0.117006 0.117006 0.993131 176.903 184.576)" fill="white"/>
<path d="M191.041 196.913C191.615 201.791 196.035 205.279 200.913 204.704C205.791 204.13 209.279 199.71 208.704 194.832C208.13 189.954 203.71 186.466 198.832 187.041C193.954 187.615 190.466 192.035 191.041 196.913Z" fill="#0046A8"/>
<circle cx="8.87173" cy="8.87173" r="8.87173" transform="matrix(-0.993131 0.117006 0.117006 0.993131 171.622 194)" fill="#0046A8"/>
<path d="M1047.2 127.463C1032.49 127.463 1007.32 225.934 1019 237.347C1030.68 248.759 1128.37 247.916 1139.4 231.373C1148.92 217.095 1132.97 134.411 1119.64 134.411C1108.53 134.411 1109.52 156.876 1104.21 156.009C1093.86 154.319 1089.26 112 1077.31 112C1065.36 112 1063.48 150.792 1057.51 148.079C1051.54 145.367 1060.69 127.463 1047.2 127.463Z" fill="#A172FF"/>
<circle cx="1052.74" cy="195.989" r="22.5173" fill="white"/>
<circle cx="1102.37" cy="195.989" r="22.5173" fill="white"/>
<circle cx="1051.08" cy="200.084" r="16.0838" fill="black"/>
<circle cx="1098.83" cy="200.084" r="16.0838" fill="black"/>
</svg>
